<?xml version="1.0" encoding="utf-8"?>
<!-- Generator: Adobe Illustrator 23.0.5, SVG Export Plug-In . SVG Version: 6.00 Build 0)  -->
<svg version="1.1" id="Layer_1" xmlns="http://www.w3.org/2000/svg" xmlns:xlink="http://www.w3.org/1999/xlink" x="0px" y="0px"
	 viewBox="0 0 220.1 231.1" style="enable-background:new 0 0 220.1 231.1;" xml:space="preserve">
<style type="text/css">
	.st0{fill:#EC4C67;}
</style>
<g>
	<path class="st0" d="M193.2,45.9c-1.1-6.7-3.7-12.7-9.3-16.8c-7.1-5.2-14.6-9.8-22-14.8c-0.7-0.5-1.1-0.4-1.6,0.4
		c-0.8,1.4-1.7,2.7-2.7,4c-0.8,1-0.6,1.5,0.4,2.2c6.4,4.2,12.7,8.5,19.2,12.7c6,3.9,8.5,9.4,8.6,16.3c0.1,6.7,0,13.4,0,20
		c0,0.5,0,1.1,0,2c-2.5-1.8-4.6-3.4-6.8-4.8c-1.3-0.8-1.7-1.8-1.6-3.2c0.1-5.5,0-10.9,0-16.4c0-2.5-1.5-4.2-3.7-4.3
		c-2.1,0-3.8,1.7-3.8,4.1c0,6.7,0,13.4,0,20c0,1.6,0.6,2.8,2,3.8c3.4,2.4,6.6,5.1,10.1,7.2c3.1,1.8,3.9,4.1,3.9,7.6
		c-0.2,24.6-0.1,49.2-0.1,73.9c0,3.8-2.1,6-5.9,6c-1,0-2,0-3,0c-3.4-0.1-5.7-2.3-5.7-5.7c0-1.7,0-3.4,0-5.1c0-19.9-0.1-39.9,0-59.8
		c0-6.5-4.1-11.6-9.7-13c-2.7-0.7-5.4-0.4-8.1-0.4c-1.3,0-1.6-0.3-1.6-1.6c0.1-11.6-0.1-23.2,0.1-34.8c0.2-11.4-8.7-20.5-20.2-20.2
		c-9.8,0.3-19.7,0.1-29.5,0.1c-15.2,0-30.5,0-45.7,0c-3.8,0-7.4,0.6-10.6,2.6c-6.1,3.8-9.4,9.3-9.4,16.6c0,27.1,0,54.2,0,81.3
		c0,17.1,0,34.2,0,51.3c0,1.3,0.3,1.8,1.6,1.6c1.2-0.1,2.4,0,3.6,0c2.1,0,2.1,0,2.1-2.2c0-43.9,0-87.9,0-131.8c0-7,5-12,12-12
		c25.5,0,51,0,76.5,0c7,0,11.9,4.9,11.9,11.9c0,48.8,0,97.6,0,146.4c0,1.4-0.4,1.7-1.7,1.7c-16.3-0.1-32.6,0-48.9,0
		c-21,0-42,0-62.9,0c-2.8,0-4.4,1.3-4.4,3.8c-0.1,6.6,0,13.1,0,19.7c0,0.8,0.3,1,1,1c1.5,0,3.1-0.1,4.6,0c1.4,0.1,1.9-0.2,1.9-1.8
		c-0.1-4.6,0-9.2-0.1-13.7c0-1.3,0.3-1.7,1.6-1.7c39.1,0,78.3,0,117.4,0c1.3,0,1.7,0.4,1.6,1.7c-0.1,4.7,0,9.4-0.1,14.1
		c0,1.2,0.3,1.5,1.5,1.4c1.6-0.1,3.2-0.1,4.8,0c1,0,1.2-0.3,1.2-1.2c0-6.5,0-12.9,0-19.4c0-2.5-1.5-3.9-4.1-4c-1.4,0-2.8-0.1-4.1,0
		c-1.5,0.1-1.9-0.3-1.9-1.9c0.1-27.1,0-54.2,0-81.3c0-6.3,0-12.6,0-18.9c0-1,0.2-1.5,1.3-1.4c1.8,0.1,3.6,0,5.5,0.1
		c2.3,0.1,3.8,1.3,4.7,3.3c0.4,0.9,0.4,1.9,0.4,2.9c0,21.5,0,43.1,0,64.6c0,5.6,3,10.3,7.8,12.2c4,1.6,8.2,1.5,12.2,0.5
		c6-1.6,9.4-6.6,9.4-13.2c0-36.1,0-72.2,0-108.3C193.5,49.4,193.5,47.6,193.2,45.9z"/>
	<path class="st0" d="M114.6,149.8c-4,7.2-10.1,11.8-18.3,13.5c-1.3,0.3-1.9,0.7-1.6,2.1c0.3,1.3,0.4,2.6,0.5,3.9
		c0,1.5,0.8,1.8,2.1,1.5c10.8-2.5,19.2-8.4,24.2-18.3c4.4-8.5,5.8-17.8,6-26.2c0-7.3-0.7-13.3-2.6-19.1c-0.2-0.7-0.4-1.2-1.4-1.2
		c-13.8,0.8-26.4,5-37.9,12.7c-13.6,9.1-18.4,29.2-11.4,42.3c0.5,0.9,0.1,1.1-0.5,1.5c-2.8,2-5.7,4-8.7,5.8c-2.3,1.4-3,3.7-1.8,5.6
		c1.2,1.9,3.4,2.2,5.7,0.8c9.6-5.9,18.4-12.8,26.1-21c6.2-6.5,11.7-13.5,15.8-21.6c1.1-2.2,0.4-4.2-1.5-5.2c-1.9-1-3.9-0.3-5.1,1.9
		c-5.7,10.6-13.5,19.4-22.4,27.4c-1.1,1-1.4,0.5-1.8-0.5c-0.8-2.2-1.3-4.6-1.4-6.9c-0.2-9.5,2.8-17.6,10.7-23.4
		c8.2-6.1,17.6-9.5,27.6-11.1c2.3-0.4,2.3-0.3,2.6,2c0.8,5.4,0.9,10.9,0.2,16.3C118.8,138.6,117.6,144.5,114.6,149.8z"/>
	<path class="st0" d="M130.9,86c0-12.1,0-24.3,0-36.4c0-3-1.4-4.4-4.5-4.4c-21.4,0-42.7,0-64.1,0c-3,0-4.5,1.4-4.5,4.5
		c0,12,0,24.1,0,36.1c0,3.5,1.3,4.8,4.8,4.8c10.5,0,21.1,0,31.6,0c10.7,0,21.4,0,32.1,0C129.5,90.4,130.9,89,130.9,86z M122,82.9
		c-9.2-0.1-18.4,0-27.7,0c-9.1,0-18.2,0-27.3,0c-1.4,0-1.7-0.4-1.7-1.7c0.1-9,0.1-18,0-27c0-1.2,0.3-1.5,1.5-1.5
		c18.4,0,36.8,0,55.2,0c1.2,0,1.6,0.3,1.6,1.6c-0.1,9.1-0.1,18.1,0,27.2C123.6,82.6,123.2,82.9,122,82.9z"/>
	<path class="st0" d="M112.7,61.4c-1.7,0.1-3.4,0.1-5.1,0c-0.9,0-1.1,0.3-1.1,1.1c0,3.5,0,7,0,10.4c0,0.7,0.1,1.1,1,1.1
		c1.8,0,3.6,0,5.5,0c0.8,0,1.1-0.3,1.1-1.1c0-1.8,0-3.5,0-5.3c0-1.7,0-3.3,0-5C114,61.9,113.8,61.4,112.7,61.4z"/>
	<path class="st0" d="M82.3,67.8c0-1.8,0-3.5,0-5.3c0-0.8-0.2-1.1-1-1.1c-1.8,0-3.6,0-5.5,0c-0.9,0-1,0.4-1,1.1c0,3.5,0,6.9,0,10.4
		c0,1,0.4,1.2,1.3,1.2c1.7,0,3.3-0.1,5,0c0.9,0,1.3-0.2,1.2-1.2C82.3,71.2,82.3,69.5,82.3,67.8z"/>
	<path class="st0" d="M98.1,67.8c0-1.8,0-3.5,0-5.3c0-0.7-0.1-1.1-1-1.1c-1.8,0.1-3.6,0-5.5,0c-0.8,0-1,0.4-1,1.1
		c0,3.5,0,6.9,0,10.4c0,0.8,0.2,1.2,1.1,1.2c1.8-0.1,3.5-0.1,5.3,0c1,0,1.1-0.4,1.1-1.2C98.1,71.2,98.1,69.5,98.1,67.8z"/>
</g>
</svg>
