<svg width="103" height="103" viewBox="0 0 103 103" fill="none" xmlns="http://www.w3.org/2000/svg">
<path d="M34 61.1931H41.2C41.2 65.1061 46.132 68.4393 52 68.4393C57.868 68.4393 62.8 65.1061 62.8 61.1931C62.8 57.2077 59.056 55.7585 51.136 53.8382C43.504 51.918 34 49.5267 34 39.4545C34 32.9691 39.292 27.462 46.6 25.6142V17.7158H57.4V25.6142C64.708 27.462 70 32.9691 70 39.4545H62.8C62.8 35.5415 57.868 32.2083 52 32.2083C46.132 32.2083 41.2 35.5415 41.2 39.4545C41.2 43.4399 44.944 44.8891 52.864 46.8094C60.496 48.7296 70 51.1209 70 61.1931C70 67.6785 64.708 73.1856 57.4 75.0334V82.9318H46.6V75.0334C39.292 73.1856 34 67.6785 34 61.1931Z" fill="#EE405E"/>
<circle cx="51.374" cy="51.374" r="47.874" stroke="#EE405E" stroke-width="7"/>
</svg>
