<svg width="103" height="103" viewBox="0 0 103 103" fill="none" xmlns="http://www.w3.org/2000/svg">
<path d="M74.4133 29.7399C73.78 27.918 72.0067 26.6211 69.9167 26.6211H35.0833C32.9933 26.6211 31.2517 27.918 30.5867 29.7399L24 48.2362V71.3953C24 73.9582 26.1217 76.0271 28.75 76.0271C31.3783 76.0271 33.5 73.9582 33.5 71.3953V69.8514H71.5V71.3953C71.5 73.9274 73.6217 76.0271 76.25 76.0271C78.8467 76.0271 81 73.9582 81 71.3953V48.2362L74.4133 29.7399ZM38.25 60.5877C35.6217 60.5877 33.5 58.5189 33.5 55.9559C33.5 53.393 35.6217 51.3241 38.25 51.3241C40.8783 51.3241 43 53.393 43 55.9559C43 58.5189 40.8783 60.5877 38.25 60.5877ZM66.75 60.5877C64.1217 60.5877 62 58.5189 62 55.9559C62 53.393 64.1217 51.3241 66.75 51.3241C69.3783 51.3241 71.5 53.393 71.5 55.9559C71.5 58.5189 69.3783 60.5877 66.75 60.5877ZM32.8983 42.0605L36.1917 32.7968H68.7767L72.07 42.0605H32.8983Z" fill="#EE405E"/>
<circle cx="51.374" cy="51.374" r="47.874" stroke="#EE405E" stroke-width="7"/>
</svg>
