<?xml version="1.0" encoding="utf-8"?>
<!-- Generator: Adobe Illustrator 23.0.5, SVG Export Plug-In . SVG Version: 6.00 Build 0)  -->
<svg version="1.1" id="Layer_1" xmlns="http://www.w3.org/2000/svg" xmlns:xlink="http://www.w3.org/1999/xlink" x="0px" y="0px"
	 viewBox="0 0 64.6 42.8" style="enable-background:new 0 0 64.6 42.8;" xml:space="preserve">
<style type="text/css">
	.st0{fill:#FFFFFF;}
	.st1{fill:#EE405E;}
</style>
<g id="Group_940" transform="translate(-199.729 -182.281)">
	<g id="Group_936" transform="translate(221.801 182.281)">
		<path id="Path_835" class="st0" d="M-5.3,5.7c0,0.1,0.1,0.2,0.1,0.3c0,0.1,0,0.1,0,0.1c-0.1,0-0.1,0.1-0.2,0.1c-0.1,0-0.2,0-0.4,0
			c-0.2,0-0.3,0-0.4,0c-0.1,0-0.1,0-0.2,0c0,0-0.1,0-0.1-0.1c0,0,0-0.1,0-0.1l-0.4-1.2h-2.3L-9.6,6c0,0,0,0.1,0,0.1
			c0,0-0.1,0.1-0.1,0.1c-0.1,0-0.1,0-0.2,0c-0.1,0-0.2,0-0.3,0c-0.1,0-0.2,0-0.3,0c-0.1,0-0.1,0-0.2-0.1c0,0,0-0.1,0-0.2
			c0-0.1,0-0.2,0.1-0.3l1.9-5.4c0,0,0-0.1,0.1-0.1c0,0,0.1-0.1,0.1-0.1c0.1,0,0.2,0,0.2,0c0.1,0,0.2,0,0.4,0c0.2,0,0.3,0,0.4,0
			c0.1,0,0.2,0,0.3,0c0.1,0,0.1,0,0.1,0.1c0,0,0.1,0.1,0.1,0.1L-5.3,5.7z M-8.1,1.3L-8.1,1.3L-9,3.8h1.7L-8.1,1.3z"/>
		<path id="Path_836" class="st0" d="M0.6,3c0,0.5-0.1,1-0.2,1.4C0.2,4.8,0,5.2-0.3,5.4c-0.3,0.3-0.6,0.4-1,0.6
			c-0.5,0.1-0.9,0.2-1.4,0.2h-1.4c-0.1,0-0.2,0-0.3-0.1C-4.4,6-4.5,5.9-4.5,5.8V0.5c0-0.1,0-0.2,0.1-0.3c0.1-0.1,0.2-0.1,0.3-0.1
			h1.6c0.5,0,0.9,0.1,1.4,0.2c0.4,0.1,0.7,0.3,1,0.6C0,1.1,0.2,1.4,0.4,1.8C0.5,2.2,0.6,2.6,0.6,3z M-0.7,3.1c0-0.3,0-0.5-0.1-0.8
			C-0.9,2.1-1,1.8-1.1,1.6c-0.2-0.2-0.3-0.3-0.6-0.4C-2,1.1-2.3,1.1-2.6,1.1h-0.6v4.1h0.6c0.3,0,0.6,0,0.9-0.1
			C-1.5,5-1.3,4.8-1.2,4.7C-1,4.5-0.9,4.3-0.8,4C-0.7,3.7-0.7,3.4-0.7,3.1L-0.7,3.1z"/>
		<path id="Path_837" class="st0" d="M8.6,6C8.6,6,8.6,6.1,8.6,6c0,0.1-0.1,0.1-0.1,0.1c-0.1,0-0.1,0-0.2,0c-0.1,0-0.2,0-0.3,0
			c-0.1,0-0.2,0-0.3,0c-0.1,0-0.1,0-0.2,0c0,0-0.1,0-0.1-0.1c0,0,0-0.1,0-0.1V1.1h0L5.7,6c0,0,0,0.1-0.1,0.1c0,0-0.1,0.1-0.1,0.1
			c-0.1,0-0.1,0-0.2,0c-0.1,0-0.2,0-0.3,0c-0.1,0-0.2,0-0.3,0c-0.1,0-0.1,0-0.2,0c0,0-0.1,0-0.1-0.1c0,0,0-0.1-0.1-0.1L2.8,1.1h0V6
			c0,0,0,0.1,0,0.1c0,0-0.1,0.1-0.1,0.1c-0.1,0-0.1,0-0.2,0c-0.2,0-0.4,0-0.6,0c-0.1,0-0.1,0-0.2,0c0,0-0.1,0-0.1-0.1
			c0,0,0-0.1,0-0.1V0.6c0-0.1,0-0.3,0.1-0.4C1.8,0.1,1.9,0.1,2,0.1h0.8c0.1,0,0.2,0,0.4,0c0.1,0,0.2,0.1,0.3,0.1
			c0.1,0.1,0.1,0.1,0.2,0.2c0.1,0.1,0.1,0.2,0.1,0.3l1.3,3.6h0l1.4-3.6c0-0.1,0.1-0.2,0.1-0.3c0-0.1,0.1-0.2,0.2-0.2
			C6.8,0.2,6.9,0.2,7,0.1c0.1,0,0.2,0,0.3,0h0.8c0.1,0,0.1,0,0.2,0c0.1,0,0.1,0,0.1,0.1c0,0,0.1,0.1,0.1,0.2c0,0.1,0,0.1,0,0.2
			L8.6,6z"/>
		<path id="Path_838" class="st0" d="M11.2,6C11.2,6,11.2,6.1,11.2,6c-0.1,0.1-0.1,0.1-0.1,0.1c-0.1,0-0.1,0-0.2,0
			c-0.2,0-0.4,0-0.6,0c-0.1,0-0.1,0-0.2,0c0,0-0.1,0-0.1-0.1c0,0,0-0.1,0-0.1V0.3c0,0,0-0.1,0-0.1c0,0,0.1-0.1,0.1-0.1
			c0.1,0,0.1,0,0.2,0c0.1,0,0.2,0,0.3,0c0.1,0,0.2,0,0.3,0c0.1,0,0.1,0,0.2,0c0,0,0.1,0,0.1,0.1c0,0,0,0.1,0,0.1V6z"/>
		<path id="Path_839" class="st0" d="M17,6C17,6,17,6.1,17,6c0,0.1-0.1,0.1-0.1,0.1c-0.1,0-0.1,0-0.2,0c-0.1,0-0.2,0-0.4,0
			c-0.1,0-0.2,0-0.3,0c-0.1,0-0.1,0-0.2,0c0,0-0.1,0-0.1-0.1c0,0,0-0.1,0-0.1l-0.5-1.4C15.1,4.5,15,4.3,15,4.2
			c-0.1-0.1-0.1-0.2-0.2-0.3c-0.1-0.1-0.2-0.1-0.3-0.2c-0.1,0-0.2-0.1-0.3-0.1h-0.4V6c0,0,0,0.1,0,0.1c0,0-0.1,0.1-0.1,0.1
			c-0.1,0-0.1,0-0.2,0c-0.2,0-0.4,0-0.6,0c-0.1,0-0.1,0-0.2,0c0,0-0.1,0-0.1-0.1c0,0,0-0.1,0-0.1V0.5c0-0.1,0-0.2,0.1-0.3
			c0.1-0.1,0.2-0.1,0.3-0.1h1.6c0.2,0,0.3,0,0.4,0s0.2,0,0.3,0c0.2,0,0.4,0.1,0.7,0.2c0.2,0.1,0.4,0.2,0.5,0.3
			c0.1,0.1,0.2,0.3,0.3,0.5c0.1,0.2,0.1,0.4,0.1,0.6c0,0.2,0,0.4-0.1,0.6c0,0.2-0.1,0.3-0.2,0.4C16.3,2.9,16.2,3,16,3.1
			c-0.2,0.1-0.3,0.2-0.5,0.2c0.1,0,0.2,0.1,0.3,0.2C15.9,3.6,16,3.6,16,3.7c0.1,0.1,0.1,0.2,0.2,0.3c0.1,0.1,0.1,0.3,0.2,0.4
			l0.5,1.2C17,5.7,17,5.8,17,5.9C17,5.9,17,6,17,6z M15.4,1.9c0-0.2,0-0.4-0.1-0.5c-0.1-0.1-0.3-0.3-0.4-0.3c-0.1,0-0.1,0-0.2,0
			c-0.1,0-0.2,0-0.3,0h-0.6v1.7h0.6c0.2,0,0.3,0,0.5-0.1c0.1,0,0.2-0.1,0.3-0.2c0.1-0.1,0.2-0.2,0.2-0.3C15.4,2.1,15.4,2,15.4,1.9
			L15.4,1.9z"/>
		<path id="Path_840" class="st0" d="M22.9,5.7c0,0.1,0.1,0.2,0.1,0.3c0,0.1,0,0.1,0,0.1c-0.1,0-0.1,0.1-0.2,0.1c-0.1,0-0.2,0-0.4,0
			c-0.2,0-0.3,0-0.4,0c-0.1,0-0.1,0-0.2,0c0,0-0.1,0-0.1-0.1c0,0,0-0.1,0-0.1l-0.4-1.2H19L18.6,6c0,0,0,0.1,0,0.1
			c0,0-0.1,0.1-0.1,0.1c-0.1,0-0.1,0-0.2,0c-0.1,0-0.2,0-0.3,0c-0.1,0-0.2,0-0.3,0c-0.1,0-0.1,0-0.2-0.1c0,0,0-0.1,0-0.2
			c0-0.1,0-0.2,0.1-0.3l1.9-5.4c0,0,0-0.1,0.1-0.1c0,0,0.1-0.1,0.1-0.1c0.1,0,0.2,0,0.2,0c0.1,0,0.2,0,0.4,0c0.2,0,0.3,0,0.4,0
			c0.1,0,0.2,0,0.3,0c0.1,0,0.1,0,0.1,0.1c0,0,0.1,0.1,0.1,0.1L22.9,5.7z M20.1,1.3L20.1,1.3l-0.9,2.6H21L20.1,1.3z"/>
		<path id="Path_841" class="st0" d="M27.1,5.7c0,0.1,0,0.2,0,0.2C27,5.9,27,6,27,6c0,0,0,0.1-0.1,0.1c0,0-0.1,0-0.1,0h-2.8
			c-0.1,0-0.2,0-0.3-0.1c-0.1-0.1-0.1-0.2-0.1-0.3V0.3c0,0,0-0.1,0-0.1c0,0,0.1-0.1,0.1-0.1c0.1,0,0.1,0,0.2,0c0.2,0,0.4,0,0.6,0
			c0.1,0,0.1,0,0.2,0c0,0,0.1,0,0.1,0.1c0,0,0,0.1,0,0.1v4.9h1.9c0,0,0.1,0,0.1,0c0,0,0,0.1,0.1,0.1c0,0,0,0.1,0,0.2
			C27,5.5,27.1,5.6,27.1,5.7z"/>
		<path id="Path_842" class="st0" d="M31.4,4.3c0,0.3-0.1,0.6-0.2,0.8c-0.1,0.2-0.3,0.4-0.5,0.6C30.5,6,30.3,6.1,30,6.2
			c-0.3,0.1-0.6,0.1-0.9,0.1c-0.2,0-0.4,0-0.6-0.1c-0.2,0-0.3-0.1-0.5-0.1c-0.1,0-0.2-0.1-0.3-0.2c-0.1,0-0.1-0.1-0.2-0.1
			c0,0-0.1-0.1-0.1-0.2c0-0.1,0-0.2,0-0.3c0-0.1,0-0.2,0-0.2c0-0.1,0-0.1,0-0.2c0,0,0-0.1,0.1-0.1c0,0,0.1,0,0.1,0
			c0.1,0,0.1,0,0.2,0.1C27.9,4.9,28,5,28.1,5c0.1,0.1,0.3,0.1,0.4,0.2c0.2,0.1,0.4,0.1,0.6,0.1c0.1,0,0.3,0,0.4-0.1
			c0.1,0,0.2-0.1,0.3-0.2C29.9,5,30,4.9,30,4.8c0-0.1,0.1-0.2,0.1-0.3c0-0.1,0-0.3-0.1-0.4c-0.1-0.1-0.2-0.2-0.3-0.3
			c-0.1-0.1-0.3-0.2-0.4-0.2c-0.2-0.1-0.3-0.1-0.5-0.2c-0.2-0.1-0.3-0.2-0.5-0.3C28.2,3.1,28,3,27.9,2.9c-0.1-0.1-0.2-0.3-0.3-0.5
			c-0.1-0.2-0.1-0.4-0.1-0.7c0-0.3,0-0.5,0.2-0.8c0.1-0.2,0.3-0.4,0.4-0.6c0.2-0.1,0.4-0.3,0.6-0.3C29,0,29.3,0,29.5,0
			c0.1,0,0.3,0,0.4,0c0.1,0,0.3,0.1,0.4,0.1c0.1,0,0.2,0.1,0.3,0.1c0.1,0,0.1,0.1,0.2,0.1c0,0,0,0.1,0.1,0.1c0,0,0,0.1,0,0.1
			c0,0,0,0.1,0,0.1c0,0.1,0,0.1,0,0.2s0,0.2,0,0.2c0,0.1,0,0.1,0,0.2c0,0,0,0.1,0,0.1c0,0-0.1,0-0.1,0c-0.1,0-0.1,0-0.2-0.1
			c-0.1,0-0.2-0.1-0.3-0.1C30.3,1.1,30.2,1.1,30,1C29.9,1,29.7,1,29.6,1c-0.1,0-0.2,0-0.4,0C29.1,1,29,1.1,29,1.2
			c-0.1,0.1-0.1,0.1-0.1,0.2c0,0.1,0,0.2,0,0.3c0,0.1,0,0.2,0.1,0.3c0.1,0.1,0.2,0.2,0.3,0.3c0.1,0.1,0.3,0.2,0.4,0.2
			c0.2,0.1,0.3,0.1,0.5,0.2c0.2,0.1,0.3,0.2,0.5,0.3C30.7,3,30.8,3.1,31,3.3c0.1,0.1,0.2,0.3,0.3,0.5C31.3,3.9,31.4,4.1,31.4,4.3z"
			/>
	</g>
	<g id="Group_937" transform="translate(236.436 197.082)">
		<path id="Path_843" class="st1" d="M-6,3.2l0.1-0.3c0.2-0.6,0.5-1.1,0.9-1.5C-5,1.3-5,1.2-5,1.2c0.1-0.7,0.3-1.4,0.6-2.1l0.1-0.3
			l0.1,0.3C-4-0.3-3.8,0.4-3.7,1.2c0,0.1,0,0.2-0.1,0.3c0.4,0.4,0.7,1,0.9,1.5l0.1,0.3l-0.2-0.1c-0.3-0.2-0.6-0.3-0.9-0.4
			c-0.2-0.3-0.6-0.3-0.9-0.1c0,0,0,0-0.1,0.1c-0.3,0.1-0.6,0.2-0.9,0.4L-6,3.2z M-4.3,2.1l0.1,0.2C-4.2,2.4-4,2.5-3.8,2.5
			c0.3,0,0.5,0.1,0.7,0.3c-0.3-0.7-0.6-1.2-0.7-1.2h0l-0.2,0l0.1-0.2c0.1-0.1,0.1-0.2,0.1-0.3C-4,0.6-4.1,0-4.3-0.6
			C-4.5,0-4.7,0.6-4.8,1.2c0,0.1,0,0.2,0.1,0.3l0.1,0.2l-0.2,0l0,0c-0.1,0-0.4,0.5-0.7,1.2c0.2-0.1,0.5-0.2,0.7-0.3
			c0.2,0,0.3-0.1,0.4-0.2L-4.3,2.1z"/>
		<path id="Path_844" class="st1" d="M3.3,11.8H-12l4.6-1.1h6.3L3.3,11.8z M-10.4,11.6H1.7l-3-0.7h-6.2L-10.4,11.6z"/>
		<path id="Path_845" class="st1" d="M-1.1,10.3h-6.4V9.9C-8.5,9.2-9.1,8-9,6.8c0-1.9,1.1-3.4,2.4-3.4c0.1,0,0.3,0,0.4,0.1l0.2,0
			l-0.1,0.1c-0.7,0.8-1.1,1.9-1.1,3c0,1,0.3,2,0.9,2.8h0.3c-0.7-0.8-1-1.8-1-2.8c0-2,1.2-3.6,2.6-3.6s2.6,1.6,2.6,3.6
			c0,1-0.3,2-1,2.8h0.3c0.6-0.8,0.9-1.8,0.9-2.8c0-1.1-0.3-2.2-1.1-3l-0.1-0.1l0.2,0c0.1,0,0.3,0,0.4-0.1c1.3,0,2.4,1.5,2.4,3.4
			C0.5,8-0.1,9.2-1.1,9.9L-1.1,10.3z M-7.4,10.2h6V9.8l0.1,0c1-0.7,1.6-1.8,1.5-3c0-1.8-1-3.2-2.3-3.2c-0.1,0-0.1,0-0.2,0
			c1.3,1.8,1.3,4.2,0,6l0,0h-0.9l0.2-0.2c0.7-0.8,1.1-1.8,1.1-2.9c0-1.9-1.1-3.4-2.4-3.4s-2.4,1.5-2.4,3.4c0,1.1,0.4,2.1,1.1,2.9
			l0.2,0.2h-0.9l0,0c-1.3-1.8-1.3-4.2,0-6c-0.1,0-0.1,0-0.2,0c-1.2,0-2.3,1.4-2.3,3.2c-0.1,1.2,0.5,2.3,1.4,3l0,0L-7.4,10.2z"/>
		<path id="Path_846" class="st1" d="M-4.3,4.5c-0.3,0-0.5-0.2-0.5-0.5s0.2-0.5,0.5-0.5c0.2,0,0.4,0.2,0.5,0.4l0,0
			C-3.8,4.2-4,4.5-4.3,4.5C-4.3,4.5-4.3,4.5-4.3,4.5z M-4.3,3.7C-4.3,3.7-4.4,3.7-4.3,3.7c-0.2,0-0.3,0.2-0.3,0.4
			c0,0.2,0.2,0.3,0.4,0.2C-4.1,4.3-4,4.1-4,4c0,0,0,0,0,0C-4,3.8-4.2,3.7-4.3,3.7L-4.3,3.7z"/>
		<path id="Path_847" class="st1" d="M-4.3,5.9c-0.3,0-0.5-0.2-0.5-0.5c0-0.3,0.2-0.5,0.5-0.5c0.2,0,0.4,0.2,0.5,0.4l0,0
			C-3.8,5.6-4,5.9-4.3,5.9C-4.3,5.9-4.3,5.9-4.3,5.9z M-4.3,5.1c-0.2,0-0.3,0.1-0.3,0.3c0,0.2,0.1,0.3,0.3,0.3C-4.2,5.7-4,5.6-4,5.4
			c0,0,0,0,0-0.1C-4,5.2-4.2,5.1-4.3,5.1z"/>
		<path id="Path_848" class="st1" d="M-4.3,7.2c-0.3,0-0.5-0.2-0.5-0.5c0-0.3,0.2-0.5,0.5-0.5c0.2,0,0.4,0.2,0.5,0.4l0,0
			C-3.8,6.9-4,7.1-4.3,7.2C-4.3,7.2-4.3,7.2-4.3,7.2z M-4.3,6.4c-0.2,0-0.3,0.1-0.3,0.3C-4.6,6.9-4.5,7-4.3,7C-4.2,7-4,6.9-4,6.7
			c0,0,0,0,0-0.1C-4,6.5-4.2,6.4-4.3,6.4L-4.3,6.4z"/>
		<path id="Path_849" class="st1" d="M-4.3,8.4c-0.3,0-0.5-0.2-0.5-0.5c0-0.3,0.2-0.5,0.5-0.5c0.2,0,0.4,0.2,0.5,0.4l0,0
			C-3.8,8.1-4,8.3-4.3,8.4C-4.3,8.4-4.3,8.4-4.3,8.4z M-4.3,7.6c-0.2,0-0.3,0.1-0.3,0.3c0,0.2,0.1,0.3,0.3,0.3C-4.2,8.2-4,8.1-4,7.9
			c0,0,0,0,0-0.1C-4,7.7-4.2,7.6-4.3,7.6L-4.3,7.6z"/>
		<path id="Path_850" class="st1" d="M-4.3,9.7c-0.2,0-0.4-0.2-0.5-0.4C-4.9,9-4.7,8.8-4.4,8.7c0.3-0.1,0.5,0.1,0.6,0.4l0,0
			C-3.8,9.4-4,9.6-4.3,9.7C-4.3,9.7-4.3,9.7-4.3,9.7z M-4.3,8.9C-4.3,8.9-4.4,8.9-4.3,8.9c-0.2,0-0.3,0.2-0.3,0.4
			c0,0.2,0.2,0.3,0.4,0.2C-4.1,9.5-4,9.3-4,9.1C-4,9-4.2,8.9-4.3,8.9z"/>
	</g>
	<path id="Path_851" class="st1" d="M234.7,224.3l0.5-1.1c0.9-1.8,2.1-3.5,3.7-4.8c0.7-0.6,1.3-1.1,1.8-1.4c1.2-0.9,1.7-1.3,1.8-2.1
		c0.1-0.6,0.1-1.2,0.1-1.9l-11.9-0.1l-8.7,0.1c0,0.6,0,1.3,0.1,1.9c0.1,0.8,0.6,1.2,1.8,2.1c0.5,0.4,1.1,0.8,1.8,1.4
		c1.5,1.3,2.7,2.9,3.5,4.7l0.4,1.1l-2.1-1.4c-2.6-1.5-5.3-2.7-8.2-3.5c-1-0.3-2.1-0.5-3.1-0.6c-0.7,0-1.3-0.2-1.9-0.6
		c-0.8-0.7-0.3-2.1-0.3-2.3l0.1-0.3l3.7,0.3c0-1.9,0.3-9.8,3.9-15.8c2.6-4.2,6.1-7.6,10.4-10.1l0.2-0.1l0,0l0,0l0.2,0.1
		c4.2,2.5,7.8,6,10.4,10.1c3.6,6,3.9,13.9,3.9,15.8l3.7-0.3l0.1,0.3c0.1,0.2,0.5,1.5-0.3,2.3c-0.6,0.4-1.2,0.6-1.9,0.6
		c-1.1,0.1-2.1,0.4-3.1,0.6c-2.9,0.9-5.6,2-8.2,3.5c-1.1,0.7-1.2,0.8-1.2,0.8L234.7,224.3z M230.4,212.2l12.6,0.1l0,0.3
		c0.1,0.8,0.1,1.6,0,2.4c-0.1,1.1-0.8,1.7-2,2.6c-0.5,0.4-1.1,0.8-1.7,1.4c-1.1,0.9-2,2-2.8,3.2c2.6-1.5,5.5-2.7,8.4-3.6
		c1.1-0.3,2.1-0.5,3.2-0.6c0.5,0,1-0.1,1.5-0.4c0.3-0.2,0.2-0.8,0.1-1.2l-3.9,0.4l0-0.4c0-0.1,0.1-9.2-3.8-15.8
		c-2.5-4-5.9-7.3-9.9-9.8c-4,2.4-7.4,5.8-9.9,9.8c-3.9,6.6-3.8,15.7-3.8,15.8l0,0.4l-3.9-0.4c-0.1,0.4-0.1,0.9,0.1,1.2
		c0.4,0.3,1,0.4,1.5,0.4c1.1,0.1,2.1,0.4,3.2,0.6c2.9,0.9,5.7,2.1,8.3,3.5c-0.7-1.2-1.6-2.3-2.7-3.2c-0.7-0.6-1.3-1-1.7-1.4
		c-1.2-1-1.9-1.5-2-2.6c-0.1-0.8-0.1-1.6,0-2.4l0-0.3L230.4,212.2z M242.1,209.4h-20l0.1-0.4c0.7-3.2,1.9-6.2,3.7-8.9
		c1.7-2.2,3.7-4.2,6-5.7l0.2-0.1l0.2,0.1c2.3,1.6,4.3,3.5,6,5.7c1.8,2.7,3.1,5.7,3.7,8.9L242.1,209.4z M223,208.7h18.2
		c-0.7-2.9-1.9-5.7-3.5-8.2c-1.6-2.1-3.4-3.9-5.6-5.4c-2.1,1.5-4,3.3-5.6,5.4C224.8,203,223.6,205.8,223,208.7L223,208.7z"/>
	<g id="Group_938" transform="translate(254.734 183.658)">
		<path id="Path_852" class="st1" d="M-10.7,20.8c-0.2,0-0.3-0.1-0.4-0.2c-0.5-1.3-1-2.5-1.7-3.7c-0.2-0.4-0.5-0.7-0.7-1.1
			c-0.1-0.2-0.1-0.4,0.1-0.5c0,0,0,0,0,0c0.5-0.3,2.5-1.3,5.1-2.7c3.6-2,6.9-4.3,10.1-7C3.6,3.9,5,2.1,6.2,0.1
			c0.1-0.2,0.3-0.3,0.5-0.2C6.8,0,6.9,0.1,6.9,0.2c0.1,0.2,1.4,5.5,0.6,8.3c-0.6,2.1-2.9,4.2-7.8,7.4c-3.2,2-6.6,3.7-10.2,4.9
			C-10.6,20.8-10.6,20.8-10.7,20.8z M-12.6,15.7c0.2,0.3,0.3,0.5,0.5,0.8c0.6,1.1,1.2,2.3,1.7,3.5c3.4-1.2,6.7-2.8,9.7-4.7
			c4.7-3,7-5.1,7.5-6.9c0.6-1.9,0-5.4-0.4-7C5.2,3,3.9,4.7,2.3,6.1c-3.2,2.7-6.6,5-10.2,7.1C-10,14.4-11.8,15.3-12.6,15.7
			L-12.6,15.7z"/>
		<path id="Path_853" class="st1" d="M-9.2,25.8c-0.1,0-0.3-0.1-0.4-0.3c0,0,0-0.1,0-0.1c-0.3-1.6-0.8-3.2-1.3-4.8
			c-0.1-0.2,0-0.4,0.2-0.5c0,0,0,0,0,0c3.5-1.2,6.9-2.8,10-4.8c0.4-0.2,0.7-0.5,1.1-0.7l0,0c0.3-0.2,0.6-0.4,0.8-0.6l0,0
			c3.4-2.3,5.1-4,5.5-5.6C6.8,7.9,6.9,7.4,6.9,7c0-0.1,0-0.1,0.1-0.2c0.1-0.2,0.2-0.3,0.2-0.3c0.1-0.2,0.3-0.2,0.5-0.1
			c0.1,0,0.1,0.1,0.2,0.2C8.6,8.6,8.9,10.8,9,13c0.1,2.8-1.9,5.5-6,8.2c-3.3,2.1-11.8,4.5-12.1,4.6C-9.1,25.8-9.2,25.8-9.2,25.8z
			 M-10.2,20.6c0.5,1.4,0.9,2.8,1.2,4.3c1.6-0.4,8.8-2.6,11.6-4.4c3.9-2.5,5.7-5,5.7-7.5C8.2,11.3,8,9.7,7.5,8.1
			c0,0.1-0.1,0.3-0.1,0.4c-0.5,1.8-2.2,3.6-5.8,6C1.4,14.8,1,15,0.7,15.2c-0.3,0.2-0.7,0.5-1.1,0.7C-3.4,17.8-6.7,19.4-10.2,20.6
			L-10.2,20.6z"/>
		<path id="Path_854" class="st1" d="M-8.8,29.6c-0.2,0-0.4-0.1-0.4-0.3c-0.1-1.3-0.3-2.7-0.6-3.9c0-0.2,0.1-0.4,0.3-0.4
			c0.1,0,0.2,0,0.3,0.1c1.4-0.4,8.8-2.6,11.7-4.5c0.5-0.3,1-0.7,1.4-1L6.2,18c0.2-0.1,0.4-0.1,0.5,0.1c0,0.1,0.1,0.1,0.1,0.2l0,0.1
			c0.1,0.9,0.4,3.5-0.7,5.3c-1.3,2.2-5.3,3.6-8.5,4.4C-5.7,29-7.9,29.4-8.8,29.6C-8.7,29.6-8.7,29.6-8.8,29.6z M-8.9,25.7
			c0.2,1,0.3,2,0.4,3.1c1-0.2,3-0.6,5.8-1.4c4.3-1.1,7.1-2.5,8-4.1C6.1,22,6.3,20.5,6.1,19l-1.6,1.1c-0.4,0.3-0.9,0.7-1.4,1
			C0,23.1-7.4,25.3-8.9,25.7L-8.9,25.7z"/>
		<path id="Path_855" class="st1" d="M-8.6,33C-8.8,33-9,32.8-9,32.6c0,0,0,0,0,0c0-0.3,0-1.6-0.2-3.3c0-0.2,0.1-0.4,0.3-0.4
			c0.8-0.2,3-0.6,6.2-1.4c1.2-0.3,2.4-0.7,3.5-1.1c0,0,0.1,0,0.1,0c0.6,0,0.9,0.1,0.9,0.1c0.2,0,0.3,0.2,0.3,0.3
			c0,1-0.4,1.9-1.2,2.6c-1.1,1.2-2.5,2.2-4,2.8C-4.7,32.7-6.6,33-8.6,33L-8.6,33z M-8.3,29.5c0.1,1.2,0.1,2.2,0.1,2.7
			c1.7,0,3.4-0.3,5.1-0.9c1.4-0.5,2.7-1.4,3.8-2.6c0.5-0.5,0.8-1,0.9-1.7c-0.1,0-0.3,0-0.4,0c-1.1,0.4-2.3,0.8-3.5,1.1
			C-5.3,28.9-7.4,29.3-8.3,29.5z"/>
	</g>
	<g id="Group_939" transform="translate(210.16 183.658)">
		<path id="Path_856" class="st1" d="M9.9,20.8c0,0-0.1,0-0.1,0c-3.6-1.2-7-2.9-10.2-4.9c-5-3.2-7.2-5.3-7.8-7.4
			c-0.8-2.8,0.5-8.1,0.6-8.3C-7.7,0-7.5-0.2-7.3-0.1C-7.1-0.1-7.1,0-7,0.1c1.2,2,2.6,3.9,4.4,5.4c3.1,2.6,6.5,5,10.1,7
			c2.5,1.5,4.5,2.5,5.1,2.7c0.2,0.1,0.3,0.3,0.2,0.5c0,0,0,0,0,0c-0.3,0.4-0.5,0.8-0.7,1.1c-0.7,1.2-1.3,2.4-1.7,3.7
			C10.2,20.7,10,20.8,9.9,20.8z M-7.2,1.3c-0.3,1.6-0.9,5.1-0.4,7c0.5,1.9,2.8,3.9,7.5,6.9c3,1.9,6.3,3.5,9.7,4.7
			c0.5-1.2,1-2.4,1.7-3.5c0.2-0.3,0.3-0.5,0.5-0.8c-0.8-0.4-2.6-1.3-4.7-2.6c-3.6-2-7-4.4-10.2-7.1C-4.7,4.7-6.1,3-7.2,1.3L-7.2,1.3
			z"/>
		<path id="Path_857" class="st1" d="M8.4,25.8c0,0-0.1,0-0.1,0c-0.4-0.1-8.9-2.5-12.1-4.6c-4.1-2.7-6.1-5.3-6-8.2
			c0.1-2.2,0.5-4.4,1.2-6.4c0.1-0.2,0.3-0.3,0.5-0.2c0.1,0,0.2,0.1,0.2,0.2c0,0,0.1,0.1,0.2,0.3c0,0.1,0.1,0.1,0.1,0.2
			c0,0.5,0.1,0.9,0.2,1.3c0.5,1.6,2.2,3.3,5.5,5.6l0,0c0.3,0.2,0.5,0.4,0.8,0.6l0,0c0.3,0.2,0.7,0.5,1.1,0.7c3.1,2,6.5,3.6,10,4.8
			c0.2,0.1,0.3,0.3,0.2,0.5c0,0,0,0,0,0c-0.6,1.6-1,3.2-1.3,4.8c0,0,0,0.1,0,0.1C8.7,25.7,8.5,25.8,8.4,25.8z M-8.4,8.1
			C-8.8,9.7-9,11.3-9.1,13c0,2.5,1.8,5,5.7,7.5c2.8,1.9,10.1,4,11.6,4.4c0.3-1.5,0.7-2.9,1.2-4.3c-3.5-1.2-6.8-2.8-9.8-4.8
			c-0.4-0.2-0.7-0.5-1.1-0.7c-0.3-0.2-0.6-0.4-0.9-0.6c-3.5-2.4-5.3-4.2-5.8-6C-8.3,8.4-8.3,8.2-8.4,8.1z"/>
		<path id="Path_858" class="st1" d="M7.9,29.6C7.9,29.6,7.9,29.6,7.9,29.6c-0.9-0.2-3.1-0.6-6.3-1.5c-3.2-0.8-7.2-2.3-8.5-4.4
			C-8,22-7.7,19.3-7.6,18.4l0-0.1c0-0.2,0.2-0.4,0.4-0.3C-7.1,18-7,18-7,18l2.1,1.5c0.4,0.3,0.9,0.7,1.4,1
			c2.9,1.9,10.3,4.1,11.7,4.5c0.2-0.1,0.4-0.1,0.5,0.1c0.1,0.1,0.1,0.2,0.1,0.3c-0.3,1.3-0.4,2.6-0.6,3.9
			C8.3,29.5,8.1,29.6,7.9,29.6L7.9,29.6z M-6.9,19c-0.2,1.5,0,3,0.6,4.3c0.9,1.5,3.7,3,8,4.1c2.8,0.7,4.8,1.2,5.8,1.4
			c0.1-1,0.3-2.1,0.4-3.1c-1.5-0.4-8.9-2.6-11.9-4.6c-0.5-0.3-1-0.7-1.4-1L-6.9,19z"/>
		<path id="Path_859" class="st1" d="M7.8,33L7.8,33c-1.9,0-3.9-0.3-5.7-1c-1.5-0.6-2.9-1.5-4-2.8c-0.7-0.7-1.1-1.6-1.2-2.6
			c0-0.2,0.2-0.3,0.3-0.3c0,0,0.4,0,0.9-0.1c0,0,0.1,0,0.1,0c1.1,0.4,2.3,0.8,3.5,1.1C5,28.3,7.2,28.7,8,28.9c0.2,0,0.3,0.2,0.3,0.4
			c-0.2,1.8-0.2,3-0.2,3.3C8.1,32.8,8,33,7.8,33C7.8,33,7.8,33,7.8,33L7.8,33z M-2.4,27.1c0.2,0.6,0.5,1.2,0.9,1.7
			c1,1.2,2.3,2.1,3.8,2.6c1.6,0.6,3.3,0.9,5.1,0.9c0-0.5,0-1.5,0.1-2.7c-1-0.2-3.1-0.6-5.9-1.4c-1.2-0.3-2.4-0.7-3.5-1.1
			C-2.1,27-2.2,27-2.4,27.1L-2.4,27.1z"/>
	</g>
</g>
</svg>
