<svg width="103" height="103" viewBox="0 0 103 103" fill="none" xmlns="http://www.w3.org/2000/svg">
<path d="M51.5 23.6562C35.7609 23.6562 23 36.0443 23 51.3236C23 66.6029 35.7609 78.991 51.5 78.991C67.2391 78.991 80 66.6029 80 51.3236C80 36.0443 67.2391 23.6562 51.5 23.6562ZM53.875 53.6292H34.8631C33.5569 53.6292 32.5 52.6032 32.5 51.3352V51.3098C32.5 50.044 33.5569 49.018 34.8631 49.018H49.125V30.5616C49.125 29.2935 50.1819 28.2675 51.4881 28.2675H51.5142C52.8181 28.2675 53.875 29.2935 53.875 30.5616V53.6292Z" fill="#EE405E"/>
<circle cx="51.374" cy="51.374" r="47.874" stroke="#EE405E" stroke-width="7"/>
</svg>
