<?xml version="1.0" encoding="utf-8"?>
<!-- Generator: Adobe Illustrator 23.0.5, SVG Export Plug-In . SVG Version: 6.00 Build 0)  -->
<svg version="1.1" id="Layer_1" xmlns="http://www.w3.org/2000/svg" xmlns:xlink="http://www.w3.org/1999/xlink" x="0px" y="0px"
	 viewBox="0 0 289.9 231.1" style="enable-background:new 0 0 289.9 231.1;" xml:space="preserve">
<style type="text/css">
	.st0{fill:#EC4C67;}
</style>
<g>
	<path class="st0" d="M-100.3,6.8c-0.8-4.8-2.6-9.1-6.6-11.9c-5.1-3.7-10.4-7-15.6-10.5c-0.5-0.4-0.8-0.3-1.1,0.3
		c-0.6,1-1.2,2-1.9,2.8c-0.6,0.7-0.4,1.1,0.3,1.5c4.6,3,9.1,6.1,13.7,9c4.3,2.7,6.1,6.7,6.2,11.6c0.1,4.8,0,9.5,0,14.3
		c0,0.4,0,0.8,0,1.4c-1.8-1.3-3.3-2.4-4.8-3.5c-0.9-0.6-1.2-1.3-1.2-2.3c0.1-3.9,0-7.8,0-11.7c0-1.8-1.1-3-2.6-3
		c-1.5,0-2.7,1.2-2.7,2.9c0,4.8,0,9.5,0,14.3c0,1.2,0.5,2,1.4,2.7c2.4,1.7,4.7,3.6,7.2,5.1c2.2,1.3,2.8,2.9,2.7,5.4
		c-0.1,17.5-0.1,35.1-0.1,52.6c0,2.7-1.5,4.2-4.2,4.3c-0.7,0-1.4,0-2.1,0c-2.4,0-4-1.6-4.1-4.1c0-1.2,0-2.4,0-3.7
		c0-14.2-0.1-28.4,0-42.6c0-4.6-2.9-8.3-6.9-9.3c-1.9-0.5-3.8-0.3-5.8-0.3c-0.9,0-1.2-0.2-1.2-1.2c0-8.3-0.1-16.5,0.1-24.8
		c0.2-8.1-6.2-14.6-14.4-14.4c-7,0.2-14,0-21,0c-10.8,0-21.7,0-32.5,0c-2.7,0-5.3,0.5-7.5,1.9c-4.4,2.7-6.7,6.6-6.7,11.8
		c0,19.3,0,38.6,0,57.9c0,12.2,0,24.4,0,36.6c0,0.9,0.2,1.3,1.1,1.2c0.9-0.1,1.7,0,2.6,0c1.5,0,1.5,0,1.5-1.6c0-31.3,0-62.6,0-93.9
		c0-5,3.6-8.6,8.5-8.6c18.2,0,36.3,0,54.5,0c5,0,8.4,3.5,8.4,8.5c0,34.8,0,69.5,0,104.3c0,1-0.3,1.2-1.2,1.2c-11.6,0-23.2,0-34.8,0
		c-14.9,0-29.9,0-44.8,0c-2,0-3.1,0.9-3.1,2.7c-0.1,4.7,0,9.4,0,14c0,0.6,0.2,0.7,0.7,0.7c1.1,0,2.2-0.1,3.3,0
		c1,0.1,1.3-0.2,1.3-1.3c-0.1-3.3,0-6.5-0.1-9.8c0-0.9,0.2-1.2,1.2-1.2c27.9,0,55.7,0,83.6,0c0.9,0,1.2,0.3,1.2,1.2
		c-0.1,3.3,0,6.7,0,10c0,0.8,0.2,1.1,1,1c1.1-0.1,2.3-0.1,3.4,0c0.7,0,0.9-0.2,0.8-0.9c0-4.6,0-9.2,0-13.8c0-1.8-1.1-2.8-2.9-2.8
		c-1,0-2-0.1-2.9,0c-1.1,0.1-1.4-0.2-1.3-1.3c0-19.3,0-38.6,0-57.9c0-4.5,0-9,0-13.4c0-0.7,0.1-1,1-1c1.3,0.1,2.6,0,3.9,0
		c1.6,0.1,2.7,0.9,3.4,2.4c0.3,0.7,0.3,1.4,0.3,2.1c0,15.3,0,30.7,0,46c0,4,2.1,7.3,5.6,8.7c2.8,1.1,5.8,1.1,8.7,0.4
		c4.3-1.1,6.7-4.7,6.7-9.4c0-25.7,0-51.4,0-77.1C-100.1,9.3-100.1,8.1-100.3,6.8z"/>
	<path class="st0" d="M-156.3,80.8c-2.9,5.1-7.2,8.4-13,9.6c-0.9,0.2-1.3,0.5-1.1,1.5c0.2,0.9,0.3,1.9,0.3,2.8
		c0,1.1,0.5,1.3,1.5,1.1c7.7-1.8,13.6-6,17.2-13c3.1-6.1,4.2-12.7,4.2-18.6c0-5.2-0.5-9.5-1.8-13.6c-0.2-0.5-0.3-0.9-1-0.8
		c-9.8,0.6-18.8,3.6-27,9c-9.7,6.4-13.1,20.8-8.1,30.1c0.3,0.6,0.1,0.8-0.3,1.1c-2,1.4-4.1,2.8-6.2,4.1c-1.6,1-2.2,2.6-1.3,4
		c0.9,1.4,2.4,1.6,4,0.6c6.8-4.2,13.1-9.1,18.6-14.9c4.4-4.6,8.3-9.6,11.2-15.4c0.8-1.5,0.3-3-1.1-3.7c-1.4-0.7-2.8-0.2-3.6,1.3
		c-4,7.6-9.6,13.8-16,19.5c-0.8,0.7-1,0.4-1.3-0.4c-0.6-1.6-0.9-3.2-1-4.9c-0.1-6.8,2-12.5,7.6-16.6c5.9-4.3,12.5-6.7,19.7-7.9
		c1.6-0.3,1.6-0.2,1.9,1.4c0.6,3.9,0.6,7.8,0.1,11.6C-153.3,72.9-154.2,77.1-156.3,80.8z"/>
	<path class="st0" d="M-144.6,35.4c0-8.6,0-17.3,0-25.9c0-2.1-1-3.1-3.2-3.1c-15.2,0-30.4,0-45.6,0c-2.1,0-3.2,1-3.2,3.2
		c0,8.6,0,17.1,0,25.7c0,2.5,0.9,3.4,3.4,3.4c7.5,0,15,0,22.5,0c7.6,0,15.2,0,22.9,0C-145.7,38.5-144.6,37.5-144.6,35.4z M-151,33.2
		c-6.6,0-13.1,0-19.7,0c-6.5,0-13,0-19.5,0c-1,0-1.2-0.3-1.2-1.2c0-6.4,0-12.8,0-19.2c0-0.9,0.2-1.1,1.1-1.1c13.1,0,26.2,0,39.3,0
		c0.9,0,1.1,0.2,1.1,1.1c0,6.4,0,12.9,0,19.3C-149.9,33-150.1,33.2-151,33.2z"/>
	<path class="st0" d="M-157.6,17.9c-1.2,0.1-2.4,0-3.7,0c-0.6,0-0.8,0.2-0.8,0.8c0,2.5,0,4.9,0,7.4c0,0.5,0.1,0.8,0.7,0.8
		c1.3,0,2.6,0,3.9,0c0.6,0,0.8-0.2,0.7-0.8c0-1.3,0-2.5,0-3.8c0-1.2,0-2.4,0-3.5C-156.7,18.2-156.8,17.8-157.6,17.9z"/>
	<path class="st0" d="M-179.2,22.4c0-1.3,0-2.5,0-3.8c0-0.5-0.2-0.8-0.7-0.8c-1.3,0-2.6,0-3.9,0c-0.6,0-0.7,0.3-0.7,0.8
		c0,2.5,0,4.9,0,7.4c0,0.7,0.3,0.8,0.9,0.8c1.2,0,2.4,0,3.5,0c0.7,0,0.9-0.2,0.9-0.9C-179.3,24.9-179.2,23.6-179.2,22.4z"/>
	<path class="st0" d="M-168,22.4c0-1.3,0-2.5,0-3.8c0-0.5-0.1-0.8-0.7-0.8c-1.3,0-2.6,0-3.9,0c-0.6,0-0.7,0.3-0.7,0.8
		c0,2.5,0,4.9,0,7.4c0,0.6,0.1,0.9,0.8,0.8c1.3,0,2.5,0,3.8,0c0.7,0,0.8-0.3,0.8-0.8C-168,24.9-168,23.7-168,22.4z"/>
</g>
<g>
	<path class="st0" d="M110.7,118.6c16.9-0.8,33.9-1.6,50.8-2.3c10.8-0.5,20.1-4.3,28-11.6c12.1-11.2,24.2-22.3,36.3-33.5
		c6.4-5.9,13.9-8.9,22.6-8.9c8.3,0,16.5,0,24.8,0c3,0,5-1.8,5-4.5c0-2.6-2-4.4-5.1-4.4c-8.4,0-16.8,0-25.2,0
		c-10.7,0-20,3.6-27.9,10.9c-10.5,9.7-21,19.4-31.5,29.1c-3.8,3.5-7.5,7.4-12.2,9.9c-0.8,0.4-1.3,0.5-2-0.3
		c-9.3-10.9-18.6-21.7-28-32.5c-8.1-9.4-16.3-18.9-24.4-28.3c-1-1.1-2-2-3.6-2c-4.2,0-8.4,0-12.6,0c-0.8,0-1,0.3-1,1.1
		c0,2.2,0.1,4.4,0,6.7c0,1,0.3,1.2,1.3,1.2c2.9-0.1,5.8,0,8.7,0c0.9,0,1.6,0.2,2.2,1c7.5,8.8,15,17.5,22.6,26.2
		c0.7,0.8,0.9,1.5,0.9,2.5c0,4.6,0,9.3,0,13.9c0,0,0,0,0,0c0,4.8,0,9.6,0,14.4c0,1.1-0.3,1.5-1.4,1.5c-5.7,0.2-11.5,0.5-17.2,0.8
		c-6.1,0.3-12.2,0-18.2,1.3c-14.4,3-25.2,16.1-25.4,30.8c-0.1,8.3,0,16.5,0,24.8c0,1.1-0.2,2-1.1,2.8c-1.5,1.5-2.3,3.4-3,5.4
		c-1.1,3.1,0.3,5.6,1.4,8.2c2.3,5.5,6.5,8.5,12.4,8.5c5.4,0,10.9,0,16.3,0c3,0,5.1-1.8,5.1-4.4c0-2.6-2.1-4.4-5.1-4.4
		c-5.6,0-11.1,0-16.7,0c-3,0-4.9-1.7-4.9-4.3c0-2.8,1.8-4.5,4.9-4.5c4.1,0,8.3,0,12.4,0c2.8,0,4.9-1.9,4.9-4.4c0-2.5-2-4.4-4.9-4.4
		c-3.8,0-7.5-0.1-11.3,0c-1.3,0-1.6-0.3-1.6-1.6c0.1-6.9,0.1-13.8,0-20.7c0-1.8,0.2-3.6,0.6-5.3C90.1,126.4,99.2,119.1,110.7,118.6z
		 M149.4,87.4c5.7,6.6,11.1,12.9,16.9,19.7c-5.6,0.3-10.7,0.5-15.7,0.8c-0.6,0-1.2,0.2-1.2-0.8C149.4,100.6,149.4,94.2,149.4,87.4z"
		/>
	<path class="st0" d="M93.9,106.6c6.3,0,11.1-5,11.1-11.2c0-6.2-5-11-11.3-11c-4.3,0-8.5,0.1-12.8,0c-3.4-0.1-6.1-1.5-8.2-4.3
		c-1.7-2.3-1.9-5-2.2-7.7c-0.9-7.4-3.7-13.5-10.9-16.8c-0.8-0.4-1.6-0.9-2.4-1.4c-7-4.1-14.3-2.4-18.7,4.5
		C32.1,68.9,25.8,79.3,19,89.3c-5.4,7.9-7.6,16.2-7.4,25.7c0.4,13.7,0.1,27.4,0.1,41.1c0,8.6,0,17.1,0,25.7c0,7.4,0,14.8,0,22.2
		c0,2.8,1.7,4.8,4.2,4.8c6,0.1,12.1,0.1,18.1,0c2.3,0,4.1-1.8,4.3-4.1c0.2-2,0.3-4.1,0.4-6.1c0.5-10.7,1-21.3,1.6-32
		c0.7-13.1,1.4-26.2,2.1-39.3c0.2-3.5,1-6.8,3-9.8c3.1-4.7,6.2-9.5,9.4-14.2c2.1-3.1,2.2-3.2,4.7-0.4c2.4,2.6,5.3,3.7,8.9,3.7
		C76.9,106.6,85.4,106.7,93.9,106.6z M67.9,97.8c-0.8,0-1.4-0.3-1.9-0.9c-1.1-1.1-2.2-2.3-3.4-3.4c-3.6-3.1-9.6-2.9-12.4,1
		c-4.9,6.8-9.7,13.6-13.8,21c-1.9,3.5-2.7,7.4-2.9,11.4c-0.8,15.4-1.6,30.8-2.4,46.2c-0.4,8.4-0.9,16.9-1.2,25.3
		c-0.1,1.3-0.5,1.6-1.7,1.6c-2-0.1-4-0.1-5.9,0c-1.4,0.1-1.7-0.4-1.7-1.7c0-14.9,0-29.7,0-44.6c0-14.1,0.1-28.1,0-42.2
		c0-5.4,1.4-10.2,4.4-14.8c7-10.8,13.8-21.7,20.8-32.5c0.4-0.7,0.9-1.4,1.4-1.9c1.4-1.5,3-1.8,4.8-0.8c2.2,1.2,4.3,2.4,6.4,3.8
		c2,1.3,2.6,3.5,3,5.7c0.4,1.9,0.6,3.9,0.9,5.8c1.3,9.9,9,16.6,19,16.6c4.1,0,8.1,0,12.2,0c2.3,0,3.4,1.6,2.4,3.3
		c-0.5,0.8-1.2,1.1-2.2,1.1C85,97.8,76.4,97.8,67.9,97.8z"/>
	<path class="st0" d="M150,137.8c-20.1-0.1-36,15.6-36.1,35.4c-0.1,19.4,15.8,35.6,34.9,35.7c20,0.1,36.1-15.7,36.2-35.4
		C185,154.1,169.1,137.8,150,137.8z M149.2,200c-14.7,0-26.5-12-26.5-26.8c0-14.8,11.9-26.6,26.7-26.5c14.7,0,26.6,12.1,26.6,26.8
		C176,188.1,164,200,149.2,200z"/>
	<path class="st0" d="M273.3,106.7c-6.7,0-13.4,0-20.2,0c-1.2,0-1.5-0.3-1.5-1.5c0.1-7.9,0.1-15.8,0-23.7c0-1.4,0.5-1.5,1.7-1.5
		c6.6,0.1,13.2,0,19.8,0c3.2,0,5.2-1.7,5.2-4.4c0-2.7-2-4.5-5.2-4.5c-8.7,0-17.4,0-26.1,0c-4.1,0-7.6,1.4-10.5,4.3
		c-10.7,10.7-21.4,21.4-32,32.1c-1.5,1.5-2.3,3.2-1.5,5.3c0.8,2,2.2,2.8,4.9,2.8c10.9,0,21.7,0,32.6,0c10.9,0,21.8,0,32.7,0
		c3,0,5-1.8,5-4.4C278.3,108.5,276.3,106.7,273.3,106.7z M242.7,105.1c0,0.9,0.1,1.6-1.3,1.6c-7.6-0.1-15.2,0-22.7,0
		c-0.2,0-0.3-0.1-0.4-0.1c8.1-8.1,16.2-16.1,24.4-24.3c0.3,0.1,0.1,0.5,0.1,0.8C242.7,90.4,242.7,97.8,242.7,105.1z"/>
	<path class="st0" d="M273.3,182.2c-22.6,0-45.2,0-67.7,0c-3.8,0-7.7,0-11.5,0c-1.9,0-3.4,0.7-4.2,2.4c-1.6,3.1,0.6,6.5,4.4,6.5
		c13.1,0,26.3,0,39.4,0s26.3,0,39.4,0c1.3,0,2.5-0.2,3.5-1c1.5-1.2,2-3,1.4-4.8C277.3,183.2,275.8,182.2,273.3,182.2z"/>
	<path class="st0" d="M73.8,57.8c9.8,0,17.8-8,17.8-17.7c0-9.8-7.9-17.9-17.6-17.9c-9.8,0-17.9,7.9-17.9,17.6
		C56.1,49.7,64,57.8,73.8,57.8z M73.8,31.1c4.9,0,8.9,3.9,9,8.8c0,4.8-3.9,8.8-8.7,8.9c-4.9,0.1-9-3.8-9.1-8.8
		C65,35.2,68.9,31.2,73.8,31.1z"/>
	<path class="st0" d="M273.6,164.4c-19.1,0-38.2,0-57.4,0c-1.2,0-2.2,0.3-3.1,1.1c-1.4,1.2-1.9,3.1-1.3,4.8c0.7,1.9,2.2,3,4.4,3
		c9.5,0,19,0,28.5,0c9.6,0,19.2,0,28.9,0c2.7,0,4.7-1.9,4.7-4.4C278.3,166.3,276.3,164.4,273.6,164.4z"/>
	<path class="st0" d="M269.3,133.3c2.6,0,4.5-1.9,4.5-4.4c0-2.5-1.9-4.5-4.6-4.5c-2.2,0-4.3,0-6.5,0c-2.2,0-4.4,0-6.6,0
		c-2.6,0-4.5,1.9-4.5,4.4c0,2.5,1.9,4.5,4.6,4.5C260.6,133.3,264.9,133.3,269.3,133.3z"/>
	<path class="st0" d="M149.7,155.5c-10-0.1-18,7.8-18.1,17.6c-0.1,9.7,7.8,17.9,17.3,18c10,0.1,18.2-7.8,18.2-17.7
		C167.2,163.8,159.2,155.6,149.7,155.5z M149.3,182.2c-4.9,0-8.8-3.9-8.8-8.8c0-5,3.8-9,8.8-9c4.9,0,9,4,8.9,8.9
		C158.3,178.2,154.2,182.2,149.3,182.2z"/>
</g>
</svg>
