<?xml version="1.0" encoding="utf-8"?>
<!-- Generator: Adobe Illustrator 23.0.5, SVG Export Plug-In . SVG Version: 6.00 Build 0)  -->
<svg version="1.1" id="Layer_1" xmlns="http://www.w3.org/2000/svg" xmlns:xlink="http://www.w3.org/1999/xlink" x="0px" y="0px"
	 viewBox="0 0 289.9 231.1" style="enable-background:new 0 0 289.9 231.1;" xml:space="preserve">
<style type="text/css">
	.st0{fill:#EC4C67;}
</style>
<g>
	<path class="st0" d="M-100.3,6.8c-0.8-4.8-2.6-9.1-6.6-11.9c-5.1-3.7-10.4-7-15.6-10.5c-0.5-0.4-0.8-0.3-1.1,0.3
		c-0.6,1-1.2,2-1.9,2.8c-0.6,0.7-0.4,1.1,0.3,1.5c4.6,3,9.1,6.1,13.7,9c4.3,2.7,6.1,6.7,6.2,11.6c0.1,4.8,0,9.5,0,14.3
		c0,0.4,0,0.8,0,1.4c-1.8-1.3-3.3-2.4-4.8-3.5c-0.9-0.6-1.2-1.3-1.2-2.3c0.1-3.9,0-7.8,0-11.7c0-1.8-1.1-3-2.6-3
		c-1.5,0-2.7,1.2-2.7,2.9c0,4.8,0,9.5,0,14.3c0,1.2,0.5,2,1.4,2.7c2.4,1.7,4.7,3.6,7.2,5.1c2.2,1.3,2.8,2.9,2.7,5.4
		c-0.1,17.5-0.1,35.1-0.1,52.6c0,2.7-1.5,4.2-4.2,4.3c-0.7,0-1.4,0-2.1,0c-2.4,0-4-1.6-4.1-4.1c0-1.2,0-2.4,0-3.7
		c0-14.2-0.1-28.4,0-42.6c0-4.6-2.9-8.3-6.9-9.3c-1.9-0.5-3.8-0.3-5.8-0.3c-0.9,0-1.2-0.2-1.2-1.2c0-8.3-0.1-16.5,0.1-24.8
		c0.2-8.1-6.2-14.6-14.4-14.4c-7,0.2-14,0-21,0c-10.8,0-21.7,0-32.5,0c-2.7,0-5.3,0.5-7.5,1.9c-4.4,2.7-6.7,6.6-6.7,11.8
		c0,19.3,0,38.6,0,57.9c0,12.2,0,24.4,0,36.6c0,0.9,0.2,1.3,1.1,1.2c0.9-0.1,1.7,0,2.6,0c1.5,0,1.5,0,1.5-1.6c0-31.3,0-62.6,0-93.9
		c0-5,3.6-8.6,8.5-8.6c18.2,0,36.3,0,54.5,0c5,0,8.4,3.5,8.4,8.5c0,34.8,0,69.5,0,104.3c0,1-0.3,1.2-1.2,1.2c-11.6,0-23.2,0-34.8,0
		c-14.9,0-29.9,0-44.8,0c-2,0-3.1,0.9-3.1,2.7c-0.1,4.7,0,9.4,0,14c0,0.6,0.2,0.7,0.7,0.7c1.1,0,2.2-0.1,3.3,0
		c1,0.1,1.3-0.2,1.3-1.3c-0.1-3.3,0-6.5-0.1-9.8c0-0.9,0.2-1.2,1.2-1.2c27.9,0,55.7,0,83.6,0c0.9,0,1.2,0.3,1.2,1.2
		c-0.1,3.3,0,6.7,0,10c0,0.8,0.2,1.1,1,1c1.1-0.1,2.3-0.1,3.4,0c0.7,0,0.9-0.2,0.8-0.9c0-4.6,0-9.2,0-13.8c0-1.8-1.1-2.8-2.9-2.8
		c-1,0-2-0.1-2.9,0c-1.1,0.1-1.4-0.2-1.3-1.3c0-19.3,0-38.6,0-57.9c0-4.5,0-9,0-13.4c0-0.7,0.1-1,1-1c1.3,0.1,2.6,0,3.9,0
		c1.6,0.1,2.7,0.9,3.4,2.4c0.3,0.7,0.3,1.4,0.3,2.1c0,15.3,0,30.7,0,46c0,4,2.1,7.3,5.6,8.7c2.8,1.1,5.8,1.1,8.7,0.4
		c4.3-1.1,6.7-4.7,6.7-9.4c0-25.7,0-51.4,0-77.1C-100.1,9.3-100.1,8.1-100.3,6.8z"/>
	<path class="st0" d="M-156.3,80.8c-2.9,5.1-7.2,8.4-13,9.6c-0.9,0.2-1.3,0.5-1.1,1.5c0.2,0.9,0.3,1.9,0.3,2.8
		c0,1.1,0.5,1.3,1.5,1.1c7.7-1.8,13.6-6,17.2-13c3.1-6.1,4.2-12.7,4.2-18.6c0-5.2-0.5-9.5-1.8-13.6c-0.2-0.5-0.3-0.9-1-0.8
		c-9.8,0.6-18.8,3.6-27,9c-9.7,6.4-13.1,20.8-8.1,30.1c0.3,0.6,0.1,0.8-0.3,1.1c-2,1.4-4.1,2.8-6.2,4.1c-1.6,1-2.2,2.6-1.3,4
		c0.9,1.4,2.4,1.6,4,0.6c6.8-4.2,13.1-9.1,18.6-14.9c4.4-4.6,8.3-9.6,11.2-15.4c0.8-1.5,0.3-3-1.1-3.7c-1.4-0.7-2.8-0.2-3.6,1.3
		c-4,7.6-9.6,13.8-16,19.5c-0.8,0.7-1,0.4-1.3-0.4c-0.6-1.6-0.9-3.2-1-4.9c-0.1-6.8,2-12.5,7.6-16.6c5.9-4.3,12.5-6.7,19.7-7.9
		c1.6-0.3,1.6-0.2,1.9,1.4c0.6,3.9,0.6,7.8,0.1,11.6C-153.3,72.9-154.2,77.1-156.3,80.8z"/>
	<path class="st0" d="M-144.6,35.4c0-8.6,0-17.3,0-25.9c0-2.1-1-3.1-3.2-3.1c-15.2,0-30.4,0-45.6,0c-2.1,0-3.2,1-3.2,3.2
		c0,8.6,0,17.1,0,25.7c0,2.5,0.9,3.4,3.4,3.4c7.5,0,15,0,22.5,0c7.6,0,15.2,0,22.9,0C-145.7,38.5-144.6,37.5-144.6,35.4z M-151,33.2
		c-6.6,0-13.1,0-19.7,0c-6.5,0-13,0-19.5,0c-1,0-1.2-0.3-1.2-1.2c0-6.4,0-12.8,0-19.2c0-0.9,0.2-1.1,1.1-1.1c13.1,0,26.2,0,39.3,0
		c0.9,0,1.1,0.2,1.1,1.1c0,6.4,0,12.9,0,19.3C-149.9,33-150.1,33.2-151,33.2z"/>
	<path class="st0" d="M-157.6,17.9c-1.2,0.1-2.4,0-3.7,0c-0.6,0-0.8,0.2-0.8,0.8c0,2.5,0,4.9,0,7.4c0,0.5,0.1,0.8,0.7,0.8
		c1.3,0,2.6,0,3.9,0c0.6,0,0.8-0.2,0.7-0.8c0-1.3,0-2.5,0-3.8c0-1.2,0-2.4,0-3.5C-156.7,18.2-156.8,17.8-157.6,17.9z"/>
	<path class="st0" d="M-179.2,22.4c0-1.3,0-2.5,0-3.8c0-0.5-0.2-0.8-0.7-0.8c-1.3,0-2.6,0-3.9,0c-0.6,0-0.7,0.3-0.7,0.8
		c0,2.5,0,4.9,0,7.4c0,0.7,0.3,0.8,0.9,0.8c1.2,0,2.4,0,3.5,0c0.7,0,0.9-0.2,0.9-0.9C-179.3,24.9-179.2,23.6-179.2,22.4z"/>
	<path class="st0" d="M-168,22.4c0-1.3,0-2.5,0-3.8c0-0.5-0.1-0.8-0.7-0.8c-1.3,0-2.6,0-3.9,0c-0.6,0-0.7,0.3-0.7,0.8
		c0,2.5,0,4.9,0,7.4c0,0.6,0.1,0.9,0.8,0.8c1.3,0,2.5,0,3.8,0c0.7,0,0.8-0.3,0.8-0.8C-168,24.9-168,23.7-168,22.4z"/>
</g>
<g>
	<path class="st0" d="M-185.2,238c10.8-0.5,21.6-1,32.4-1.5c6.9-0.3,12.8-2.8,17.9-7.4c7.7-7.1,15.4-14.2,23.1-21.3
		c4.1-3.8,8.8-5.7,14.4-5.7c5.3,0,10.5,0,15.8,0c1.9,0,3.2-1.2,3.2-2.8c0-1.7-1.3-2.8-3.2-2.8c-5.3,0-10.7,0-16,0
		c-6.8,0-12.7,2.3-17.7,6.9c-6.7,6.2-13.4,12.4-20.1,18.5c-2.5,2.3-4.8,4.7-7.7,6.3c-0.5,0.3-0.8,0.3-1.3-0.2
		c-5.9-6.9-11.9-13.8-17.8-20.7c-5.2-6-10.4-12-15.5-18c-0.6-0.7-1.3-1.3-2.3-1.3c-2.7,0-5.3,0-8,0c-0.5,0-0.7,0.2-0.7,0.7
		c0,1.4,0,2.8,0,4.2c0,0.6,0.2,0.8,0.8,0.8c1.8,0,3.7,0,5.5,0c0.6,0,1,0.2,1.4,0.6c4.8,5.6,9.6,11.1,14.4,16.7
		c0.4,0.5,0.6,1,0.6,1.6c0,2.9,0,5.9,0,8.8c0,0,0,0,0,0c0,3.1,0,6.1,0,9.2c0,0.7-0.2,1-0.9,1c-3.7,0.1-7.3,0.3-10.9,0.5
		c-3.9,0.2-7.8,0-11.6,0.8c-9.2,1.9-16,10.3-16.2,19.6c-0.1,5.3,0,10.5,0,15.8c0,0.7-0.2,1.3-0.7,1.8c-1,1-1.5,2.2-1.9,3.5
		c-0.7,2,0.2,3.5,0.9,5.2c1.4,3.5,4.1,5.4,7.9,5.4c3.5,0,6.9,0,10.4,0c1.9,0,3.2-1.2,3.2-2.8c0-1.7-1.3-2.8-3.2-2.8
		c-3.5,0-7.1,0-10.6,0c-1.9,0-3.1-1.1-3.1-2.8c0-1.8,1.2-2.9,3.1-2.9c2.6,0,5.3,0,7.9,0c1.8,0,3.1-1.2,3.1-2.8
		c0-1.6-1.3-2.8-3.1-2.8c-2.4,0-4.8,0-7.2,0c-0.8,0-1-0.2-1-1c0-4.4,0-8.8,0-13.2c0-1.1,0.1-2.3,0.4-3.4
		C-198.4,242.9-192.5,238.3-185.2,238z M-160.5,218.1c3.6,4.2,7.1,8.2,10.8,12.5c-3.6,0.2-6.8,0.3-10,0.5c-0.4,0-0.8,0.1-0.8-0.5
		C-160.5,226.5-160.5,222.4-160.5,218.1z"/>
	<path class="st0" d="M-195.9,230.4c4,0,7.1-3.2,7.1-7.1c0-3.9-3.2-7-7.2-7c-2.7,0-5.4,0.1-8.1,0c-2.1-0.1-3.9-1-5.2-2.7
		c-1.1-1.5-1.2-3.2-1.4-4.9c-0.6-4.7-2.4-8.6-6.9-10.7c-0.5-0.2-1-0.6-1.5-0.9c-4.5-2.6-9.1-1.6-11.9,2.9
		c-4.2,6.5-8.2,13.1-12.5,19.5c-3.4,5-4.9,10.3-4.7,16.4c0.2,8.7,0.1,17.4,0.1,26.2c0,5.5,0,10.9,0,16.4c0,4.7,0,9.4,0,14.1
		c0,1.8,1.1,3.1,2.7,3.1c3.9,0,7.7,0,11.6,0c1.5,0,2.6-1.1,2.7-2.6c0.1-1.3,0.2-2.6,0.2-3.9c0.3-6.8,0.7-13.6,1-20.4
		c0.4-8.4,0.9-16.7,1.3-25.1c0.1-2.2,0.7-4.3,1.9-6.2c2-3,4-6,6-9c1.3-2,1.4-2,3-0.3c1.6,1.7,3.4,2.4,5.6,2.3
		C-206.8,230.3-201.3,230.4-195.9,230.4z M-212.5,224.7c-0.5,0-0.9-0.2-1.2-0.6c-0.7-0.7-1.4-1.5-2.2-2.1c-2.3-2-6.1-1.8-7.9,0.7
		c-3.1,4.3-6.2,8.7-8.8,13.4c-1.2,2.2-1.7,4.7-1.8,7.2c-0.5,9.8-1,19.6-1.5,29.4c-0.3,5.4-0.6,10.7-0.8,16.1c0,0.9-0.3,1-1.1,1
		c-1.3-0.1-2.5-0.1-3.8,0c-0.9,0.1-1.1-0.3-1.1-1.1c0-9.5,0-18.9,0-28.4c0-9,0-17.9,0-26.9c0-3.5,0.9-6.5,2.8-9.4
		c4.5-6.9,8.8-13.8,13.2-20.7c0.3-0.4,0.5-0.9,0.9-1.2c0.9-1,1.9-1.2,3.1-0.5c1.4,0.7,2.7,1.5,4,2.4c1.3,0.8,1.6,2.3,1.9,3.6
		c0.2,1.2,0.4,2.5,0.6,3.7c0.9,6.3,5.8,10.6,12.1,10.6c2.6,0,5.2,0,7.8,0c1.4,0,2.2,1,1.5,2.1c-0.3,0.5-0.8,0.7-1.4,0.7
		C-201.6,224.7-207,224.7-212.5,224.7z"/>
	<path class="st0" d="M-160.2,250.2c-12.8,0-23,9.9-23,22.6c0,12.4,10.1,22.7,22.3,22.7c12.7,0,23-10,23-22.6
		C-137.9,260.6-148,250.2-160.2,250.2z M-160.7,289.8c-9.4,0-16.9-7.6-16.9-17.1c0-9.4,7.6-16.9,17-16.9c9.4,0,17,7.7,16.9,17.1
		C-143.6,282.3-151.2,289.8-160.7,289.8z"/>
	<path class="st0" d="M-81.7,230.4c-4.3,0-8.6,0-12.8,0c-0.8,0-1-0.2-1-1c0-5,0-10.1,0-15.1c0-0.9,0.3-1,1.1-1c4.2,0,8.4,0,12.6,0
		c2,0,3.3-1.1,3.3-2.8c0-1.7-1.3-2.8-3.3-2.8c-5.5,0-11.1,0-16.6,0c-2.6,0-4.8,0.9-6.7,2.7c-6.8,6.8-13.6,13.6-20.4,20.4
		c-1,1-1.5,2-0.9,3.4c0.5,1.3,1.4,1.8,3.1,1.8c6.9,0,13.8,0,20.7,0c7,0,13.9,0,20.9,0c1.9,0,3.2-1.1,3.2-2.8
		C-78.5,231.5-79.7,230.4-81.7,230.4z M-101.1,229.4c0,0.6,0.1,1-0.8,1c-4.8,0-9.7,0-14.5,0c-0.1,0-0.2,0-0.3-0.1
		c5.2-5.1,10.3-10.3,15.5-15.5c0.2,0.1,0,0.3,0,0.5C-101.1,220-101.1,224.7-101.1,229.4z"/>
	<path class="st0" d="M-81.6,278.5c-14.4,0-28.8,0-43.2,0c-2.4,0-4.9,0-7.3,0c-1.2,0-2.1,0.5-2.7,1.5c-1,2,0.4,4.1,2.8,4.1
		c8.4,0,16.7,0,25.1,0c8.4,0,16.7,0,25.1,0c0.8,0,1.6-0.1,2.2-0.6c1-0.8,1.3-1.9,0.9-3.1C-79.1,279.1-80,278.5-81.6,278.5z"/>
	<path class="st0" d="M-208.7,199.2c6.2,0,11.4-5.1,11.4-11.2c0-6.2-5-11.4-11.2-11.4c-6.2,0-11.4,5-11.4,11.2
		C-220,194.1-214.9,199.2-208.7,199.2z M-208.7,182.2c3.1,0,5.7,2.5,5.7,5.6c0,3.1-2.5,5.6-5.5,5.7c-3.2,0-5.7-2.4-5.8-5.6
		C-214.4,184.8-211.9,182.3-208.7,182.2z"/>
	<path class="st0" d="M-81.4,267.2c-12.2,0-24.4,0-36.5,0c-0.7,0-1.4,0.2-2,0.7c-0.9,0.8-1.2,2-0.8,3.1c0.4,1.2,1.4,1.9,2.8,1.9
		c6,0,12.1,0,18.1,0c6.1,0,12.3,0,18.4,0c1.7,0,3-1.2,3-2.8C-78.5,268.4-79.7,267.2-81.4,267.2z"/>
	<path class="st0" d="M-84.2,247.3c1.6,0,2.9-1.2,2.9-2.8c0-1.6-1.2-2.8-2.9-2.9c-1.4,0-2.7,0-4.1,0c-1.4,0-2.8,0-4.2,0
		c-1.6,0-2.9,1.2-2.9,2.8c0,1.6,1.2,2.9,2.9,2.9C-89.7,247.4-87,247.4-84.2,247.3z"/>
	<path class="st0" d="M-160.4,261.5c-6.3,0-11.5,5-11.5,11.2c0,6.2,5,11.4,11,11.4c6.4,0.1,11.6-5,11.6-11.3
		C-149.2,266.8-154.3,261.5-160.4,261.5z M-160.6,278.5c-3.1,0-5.6-2.5-5.6-5.6c0-3.2,2.4-5.7,5.6-5.7c3.1,0,5.7,2.5,5.7,5.7
		C-154.9,276-157.5,278.5-160.6,278.5z"/>
</g>
<g>
	<g>
		<path class="st0" d="M95.1,124.8l-0.1,0.6h0.9l0-0.1c0-0.2,0-0.3,0.1-0.5H95.1z M195.1,126.8h-0.9c0,0.2,0,0.3,0.1,0.5l0,0.1h0.9
			C195.2,127.1,195.1,127,195.1,126.8z M139.6,129.2v0.9h0.6v-0.9H139.6z M151.6,129.2v0.9h0.6v-0.9H151.6z M139.6,100.9v0.9h0.6
			v-0.9H139.6z M166.5,65.7c-0.6-0.6-1.5-0.6-2.9-0.6h-0.1c-3.5,0-4,0.5-4,3.9c0,1.5,0,2.4,0.6,3c0.6,0.6,1.6,0.6,2.8,0.6h0.2
			c3.4,0,3.9-0.5,3.9-3.9v-0.1C167.1,67.1,167.1,66.3,166.5,65.7z M163.2,71.6c-2.6,0-2.6,0-2.6-2.6c0-2.9,0-2.9,2.9-2.9
			c2.6,0,2.6,0,2.6,2.5v0.1C166.1,71.6,166.1,71.6,163.2,71.6z M129.7,65.7c-0.7-0.7-1.5-0.7-3.2-0.7c-3.3,0-3.7,0.5-3.7,3.8
			c0,1.6,0,2.5,0.6,3.1c0.6,0.6,1.5,0.6,3,0.6h0.1c3.3,0,3.8-0.5,3.8-3.7C130.3,67.3,130.3,66.4,129.7,65.7z M126.5,71.6
			c-2.7,0-2.7,0-2.7-2.7c0-2.8,0-2.8,2.7-2.8c2.8,0,2.8,0,2.8,2.8C129.3,71.6,129.3,71.6,126.5,71.6z"/>
		<path class="st0" d="M166.2,66c-0.4-0.4-1.1-0.5-2.3-0.5h-0.4c-3.2,0-3.5,0.3-3.5,3.5c0,1.5,0,2.2,0.5,2.7
			c0.5,0.5,1.2,0.5,2.5,0.5h0.2c3.2,0,3.4-0.3,3.4-3.4v-0.1C166.7,67.2,166.7,66.5,166.2,66z M161.4,66.9c0.2-0.2,1-0.2,2.2-0.2
			c0.9,0,1.7,0,1.9,0.2c0.2,0.2,0.1,0.9,0.1,1.8v0.1c0,1.1,0,1.9-0.2,2.1c-0.2,0.2-1,0.2-2.1,0.2c-1,0-1.7,0-1.9-0.2
			c-0.2-0.2-0.2-0.9-0.2-1.9C161.2,67.9,161.2,67.1,161.4,66.9z M129.4,66.1c-0.5-0.5-1.3-0.5-2.8-0.5c-1.5,0-2.3,0.1-2.8,0.5
			c-0.4,0.4-0.5,1.3-0.5,2.8c0,1.5,0,2.3,0.5,2.8c0.5,0.5,1.2,0.5,2.7,0.5h0.1c3.1,0,3.3-0.2,3.3-3.3
			C129.9,67.3,129.9,66.6,129.4,66.1z M126.5,71c-1,0-1.8,0-2-0.2c-0.2-0.2-0.2-1-0.2-2c0-1,0-1.8,0.2-2c0.2-0.2,1-0.2,2-0.2
			c1,0,1.9,0,2.1,0.2c0.2,0.2,0.2,1,0.2,2c0,1,0,1.8-0.2,2C128.4,71,127.6,71,126.5,71z M139.6,129.2v0.9h1.1v-0.9H139.6z
			 M151,129.2v0.9h1.1v-0.9H151z M139.6,100.9v0.9h1.1v-0.9H139.6z M166.2,66c-0.4-0.4-1.1-0.5-2.3-0.5h-0.4c-3.2,0-3.5,0.3-3.5,3.5
			c0,1.5,0,2.2,0.5,2.7c0.5,0.5,1.2,0.5,2.5,0.5h0.2c3.2,0,3.4-0.3,3.4-3.4v-0.1C166.7,67.2,166.7,66.5,166.2,66z M161.4,66.9
			c0.2-0.2,1-0.2,2.2-0.2c0.9,0,1.7,0,1.9,0.2c0.2,0.2,0.1,0.9,0.1,1.8v0.1c0,1.1,0,1.9-0.2,2.1c-0.2,0.2-1,0.2-2.1,0.2
			c-1,0-1.7,0-1.9-0.2c-0.2-0.2-0.2-0.9-0.2-1.9C161.2,67.9,161.2,67.1,161.4,66.9z M139.6,129.2v0.9h1.1v-0.9H139.6z M151,129.2
			v0.9h1.1v-0.9H151z M139.6,100.9v0.9h1.1v-0.9H139.6z M129.4,66.1c-0.5-0.5-1.3-0.5-2.8-0.5c-1.5,0-2.3,0.1-2.8,0.5
			c-0.4,0.4-0.5,1.3-0.5,2.8c0,1.5,0,2.3,0.5,2.8c0.5,0.5,1.2,0.5,2.7,0.5h0.1c3.1,0,3.3-0.2,3.3-3.3
			C129.9,67.3,129.9,66.6,129.4,66.1z M126.5,71c-1,0-1.8,0-2-0.2c-0.2-0.2-0.2-1-0.2-2c0-1,0-1.8,0.2-2c0.2-0.2,1-0.2,2-0.2
			c1,0,1.9,0,2.1,0.2c0.2,0.2,0.2,1,0.2,2c0,1,0,1.8-0.2,2C128.4,71,127.6,71,126.5,71z M95.1,124.8l-0.1,0.6l-0.1,0.6h0.9l0.1-0.6
			l0-0.1c0-0.2,0-0.3,0.1-0.5H95.1z M195.2,127.4C195.2,127.4,195.2,127.4,195.2,127.4c0-0.3-0.1-0.5-0.1-0.6h-0.9
			c0,0.2,0,0.3,0.1,0.5l0,0.1l0.1,0.6h0.9L195.2,127.4z M191.1,112.5l-0.4,0.1L191.1,112.5C191.1,112.6,191.1,112.6,191.1,112.5z
			 M139.6,129.2v0.9h1.1v-0.9H139.6z M151,129.2v0.9h1.1v-0.9H151z M139.6,100.9v0.9h1.1v-0.9H139.6z M166.2,66
			c-0.4-0.4-1.1-0.5-2.3-0.5h-0.4c-3.2,0-3.5,0.3-3.5,3.5c0,1.5,0,2.2,0.5,2.7c0.5,0.5,1.2,0.5,2.5,0.5h0.2c3.2,0,3.4-0.3,3.4-3.4
			v-0.1C166.7,67.2,166.7,66.5,166.2,66z M161.4,66.9c0.2-0.2,1-0.2,2.2-0.2c0.9,0,1.7,0,1.9,0.2c0.2,0.2,0.1,0.9,0.1,1.8v0.1
			c0,1.1,0,1.9-0.2,2.1c-0.2,0.2-1,0.2-2.1,0.2c-1,0-1.7,0-1.9-0.2c-0.2-0.2-0.2-0.9-0.2-1.9C161.2,67.9,161.2,67.1,161.4,66.9z
			 M129.4,66.1c-0.5-0.5-1.3-0.5-2.8-0.5c-1.5,0-2.3,0.1-2.8,0.5c-0.4,0.4-0.5,1.3-0.5,2.8c0,1.5,0,2.3,0.5,2.8
			c0.5,0.5,1.2,0.5,2.7,0.5h0.1c3.1,0,3.3-0.2,3.3-3.3C129.9,67.3,129.9,66.6,129.4,66.1z M126.5,71c-1,0-1.8,0-2-0.2
			c-0.2-0.2-0.2-1-0.2-2c0-1,0-1.8,0.2-2c0.2-0.2,1-0.2,2-0.2c1,0,1.9,0,2.1,0.2c0.2,0.2,0.2,1,0.2,2c0,1,0,1.8-0.2,2
			C128.4,71,127.6,71,126.5,71z"/>
	</g>
	<g>
		<path class="st0" d="M191.1,112.6l-0.4,0.1L191.1,112.6C191.1,112.6,191.1,112.6,191.1,112.6z"/>
	</g>
	<g>
		<path class="st0" d="M215.1,174.2c-1.3-7.8-5.7-13.4-12.9-16.7c-0.8-0.4-1-0.6-1.1-1.5c-0.4-2.9-0.8-6.2-1.3-9.8l-0.1-0.5h-5.2
			l0.1,0.6c0.2,1.5,0.4,3,0.6,4.5c0.1,0.4,0.1,0.9,0.2,1.3l0,0.1c0.1,1.1,0.3,2.3,0.5,3.5c-5.8-0.8-10.7,0.8-14.6,4.7
			c-2,2.1-3.4,4.6-4.2,7.5c-0.4,1.6-0.6,1.7-2.2,1.7h-60c-1.7,0-1.8-0.1-2.3-1.8c-1.1-4.1-3.6-7.6-7.1-9.8c-2.6-1.7-5.6-2.5-8.8-2.5
			c-1,0-1.9,0.1-2.9,0.2c0.5-3.4,1-7.1,1.5-11l0.1-0.6h-5.1l-0.1,0.5c-0.6,4.5-1.1,8.3-1.6,12c-0.1,0.4-0.1,0.5-0.6,0.8
			c-6.1,2.5-10.7,7.7-12.6,14.3c-1.9,6.5-0.8,13.3,2.9,18.8c4.5,6.5,11,9.9,19.3,9.9c11.3,0,22.7,0,33.8,0l60.6,0
			c2.7,0,4.8-0.2,6.8-0.7c5.3-1.4,9.9-4.7,13-9.3c2.4-3.6,3.7-7.9,3.7-12.2C215.4,176.7,215.3,175.5,215.1,174.2z M206.7,188.4
			c-3,3.8-7.4,6.2-12.2,6.5c-1.2,0.1-2.2,0.1-3.2,0.1c-10.3,0-20.6,0-30.8,0h-15.6c-4.5,0-9,0-13.5,0h-0.5c-10.9,0-22.1,0-33.1,0
			c-8.1,0-13.7-3.6-16.7-10.7c-2.2-5.1-1.8-10.7,1-15.4c2.9-4.8,7.8-7.9,13.3-8.4c0.4,0,0.8-0.1,1.2-0.1c5.6,0,10.3,3.6,11.4,9
			c0.7,3.4,3.1,5.1,7,5.1l33.3,0h20l2.2,0c1.6,0,3.5,0,5.3,0c3.4-0.1,5.7-1.9,6.4-5c0.7-3.1,2.4-5.7,5-7.3c2.8-1.8,6.2-2.2,10-1.4
			c3.4,0.8,6.4,2.5,8.7,5c2.3,2.4,3.9,5.6,4.5,9C210.9,179.7,209.6,184.6,206.7,188.4z"/>
	</g>
	<g>
		<path class="st0" d="M197.3,127.3c-0.2-1.4-0.4-2.8-0.6-4.2c-0.4-3.2-0.9-6.5-1.3-9.6l0-0.1c-0.4-2.9-0.8-5.8-1.1-8.7
			c-0.3-2.4-0.7-4.9-1-7.2c-0.5-3.7-1.1-7.6-1.5-11.4c-0.8-6.5-4.1-11.2-9.8-13.9c-3-1.5-6.2-1.6-9.7-1.5c-0.3,0-0.7,0-1,0.1
			c-0.4,0-1.1,0.1-1.2,0c-0.1-0.2,0-0.8,0-1.1c0-0.3,0.1-0.7,0.1-1.1c0-0.4,0-1,0-1.2c0.3,0,0.8-0.1,1.3-0.1
			c3.4-0.2,6.5-1.6,8.5-4.1c2-2.5,2.9-5.7,2.4-9.1c-0.4-2.9-1-5.9-1.6-8.8c-0.1-0.7-0.2-1.4-0.4-2c-0.2-1.6-0.5-3.2-1.1-4.8
			c-1.8-4.5-5.8-7.2-10.9-7.2c-2.7,0-5.5,0-8.2,0h-0.6V36l0.6,0c2.6,0,5.3,0,8,0c3.8,0,6,1.8,6.7,5.4c0.8,3.6,1.7,8.4,2.5,13.3
			c0.3,1.9-0.2,3.7-1.4,5.1c-1.3,1.5-3.2,2.3-5.4,2.3h0c-6,0-12.1,0-18,0l-7.7,0h-6.9c-6,0-12.3,0-18.4,0c-2.8,0-4.8-1-6.1-3.1
			c-0.8-1.3-1.1-2.8-0.9-4.4c0.9-5.2,1.7-9.5,2.5-13.4c0.7-3.5,3-5.3,6.7-5.3h12.2v-5.1h-0.6c-3.9,0-8.4,0-12.8,0.1
			c-4.9,0.1-9.3,3.7-10.3,8.6c-0.9,4.4-2,9.6-2.7,14.9c-0.6,4.3,1.1,8,4.8,10.7c2.1,1.5,4.5,2.2,7.5,2h0.1c-0.1,1.1-0.1,2.2,0,3.4v0
			c0,0,0,0,0,0c-1.2-0.1-2.3,0-3.5,0c-0.4,0-0.8,0-1.1,0c-8,0-14.5,5.1-16.5,12.8c-0.5,2.1-0.8,4.2-1,6.3c-0.1,0.8-0.2,1.7-0.3,2.5
			c-0.4,3.1-0.9,6.3-1.3,9.4l-0.1,0.6c-0.4,2.8-0.8,5.6-1.1,8.4c-0.3,2.1-0.6,4.2-0.8,6.2l0,0.3c-0.3,2.1-0.6,4.3-0.8,6.4l-0.3,2.4
			h2.1l0.1-0.6l0.1-0.6H96c0,0.2,0,0.3-0.1,0.5l0,0.1l-0.1,0.6h2.1l0.1-0.5c0.4-2.7,0.7-5.5,1.1-8.2c0.5-3.8,1.1-7.7,1.6-11.5l0-0.1
			c0.5-3.8,1.1-7.8,1.6-11.7c0.1-0.9,0.2-1.9,0.3-2.8c0.3-2.3,0.5-4.7,1.1-7c1.2-4.5,5.6-8,10.3-8.3v0c0,4.8,0,9.6,0,14.4v35.1
			c0,8.8,0,17.7,0,26.5c0,4.5,2.3,7.6,6.4,8.6c0.8,0.2,1.7,0.2,2.6,0.2c4.7,0,9.4,0,14.2,0h0.2c9.7,0,19.7,0,29.6,0h0.1
			c2.5,0,4.7-0.9,6.3-2.5c1.6-1.6,2.5-4,2.5-6.5c-0.1-15.4-0.1-31.1-0.1-46.3v-1.2c0-9.2,0-18.7,0-28.1c0-0.1,0-0.2,0-0.3
			c0.1,0,0.2,0,0.3,0c5.6,0.6,9.9,4.9,10.6,10.6c0.5,4.5,1.2,9.1,1.8,13.5l0.1,0.4c0.3,2.1,0.6,4.2,0.9,6.2c0.3,2.1,0.6,4.2,0.8,6.3
			l0,0.1c0.3,2.2,0.6,4.3,0.9,6.5c0.4,2.7,0.7,5.5,1.1,8.2l0.1,0.5h2.1l-0.1-0.6l0-0.1c0-0.2,0-0.3-0.1-0.5h0.9
			c0,0.2,0.1,0.4,0.1,0.6c0,0,0,0.1,0,0.1l0.1,0.5h2.1L197.3,127.3z M163.5,65.1L163.5,65.1c1.5,0,2.4,0,3,0.6
			c0.6,0.6,0.6,1.5,0.6,3v0.1c0,3.4-0.5,3.9-3.9,3.9H163c-1.3,0-2.2,0-2.8-0.6c-0.6-0.6-0.6-1.5-0.6-3
			C159.6,65.5,160,65.1,163.5,65.1z M133.3,70.6c0.1-1.1,0.1-2.3,0-3.4c0,0,0,0,0,0h0.1c4.9,0,10,0,14.5,0h5.8c0.9,0,1.9,0,2.8,0
			c0,1.4,0,2.4,0,3.4c-2.9,0-6,0-8.7,0h-6.1C139,70.6,136.2,70.5,133.3,70.6L133.3,70.6C133.3,70.6,133.3,70.6,133.3,70.6z
			 M122.8,68.9c0-3.3,0.5-3.8,3.7-3.8c1.6,0,2.5,0,3.2,0.7c0.7,0.7,0.7,1.6,0.7,3.2c0,3.3-0.5,3.7-3.8,3.7h-0.1c-1.5,0-2.4,0-3-0.6
			C122.8,71.3,122.8,70.5,122.8,68.9z M170.7,75.9c0,7.3,0,14.7,0,22.8c0,0.1,0,0.1,0,0.2c-0.1,0-0.1,0-0.2,0c-6.1,0-12.2,0-19,0
			H151v5.1h0.6c5.8,0,12.5,0,19,0h0.2c0,0.1,0,0.1,0,0.2c0,7.7,0,15.4,0,22.9c0,0.1,0,0.1,0,0.2c-0.1,0-0.1,0-0.2,0
			c-6.3,0-12.6,0-19,0H151v2.1h1.1v0.9H151v2.1h0.6c6.7,0,12.8,0,18.9,0c0.1,0,0.2,0,0.2,0v0.2c0,4.4,0,8.9,0,12.9
			c0,2.1,0,4.2,0,6.3c0,2.7-1.1,3.8-3.9,3.8c-14.6,0-29.2,0-43.7,0c-2.8,0-3.9-1.1-3.9-3.8c0-2.3,0-4.5,0-6.8c0-3.9,0-8.3,0-12.5
			v-0.1h0.1c6.7,0,13.6,0,19.7,0h1.8v-2.1h-1.1v-0.9h1.1v-2.1h-0.6c-7,0-13.9,0-20.8,0c-0.1,0-0.1,0-0.2,0c0-0.1,0-0.1,0-0.2
			c0-7.6,0-15.3,0-22.9c0-0.1,0-0.1,0-0.2c0.1,0,0.1,0,0.2,0c6.5,0,13.1,0,19.5,0l1.9,0v-2.1h-1.1v-0.9h1.1v-2.1l-2,0
			c-6.3,0-12.9,0-19.4,0c-0.1,0-0.1,0-0.2,0c0-0.1,0-0.1,0-0.2c0-7.6,0-15.3,0-22.9c0-0.1,0-0.1,0-0.2c0.1,0,0.1,0,0.2,0
			c18.1,0,34.8,0,51.1,0c0.1,0,0.2,0,0.3,0C170.7,75.7,170.7,75.8,170.7,75.9z M190.8,112.7l0.4-0.1c0,0,0,0,0,0.1L190.8,112.7z"/>
	</g>
</g>
</svg>
