<svg xmlns="http://www.w3.org/2000/svg" xmlns:xlink="http://www.w3.org/1999/xlink" version="1.1" width="1000" height="1000" viewBox="0 0 1000 1000" xml:space="preserve">
<desc>Created with Fabric.js 3.5.0</desc>
<defs>
</defs>
<rect x="0" y="0" width="100%" height="100%" fill="rgba(255,255,255,0)"/>
<g transform="matrix(1.5991 0 0 1.5991 500.0009 500.0009)" id="389758">
<path style="stroke: none; stroke-width: 1; stroke-dasharray: none; stroke-linecap: butt; stroke-dashoffset: 0; stroke-linejoin: miter; stroke-miterlimit: 4; is-custom-font: none; font-file-url: none; fill: rgb(238,64,94); fill-rule: nonzero; opacity: 1;" vector-effect="non-scaling-stroke" transform=" translate(-256, -256)" d="M 320 96 H 192 L 144.6 24.9 C 137.5 14.2 145.1 0 157.9 0 H 354.1 c 12.8 0 20.4 14.2 13.3 24.9 L 320 96 z M 192 128 H 320 c 3.8 2.5 8.1 5.3 13 8.4 C 389.7 172.7 512 250.9 512 416 c 0 53 -43 96 -96 96 H 96 c -53 0 -96 -43 -96 -96 C 0 250.9 122.3 172.7 179 136.4 l 0 0 l 0 0 c 4.8 -3.1 9.2 -5.9 13 -8.4 z m 84 88 c 0 -11 -9 -20 -20 -20 s -20 9 -20 20 v 14 c -7.6 1.7 -15.2 4.4 -22.2 8.5 c -13.9 8.3 -25.9 22.8 -25.8 43.9 c 0.1 20.3 12 33.1 24.7 40.7 c 11 6.6 24.7 10.8 35.6 14 l 1.7 0.5 c 12.6 3.8 21.8 6.8 28 10.7 c 5.1 3.2 5.8 5.4 5.9 8.2 c 0.1 5 -1.8 8 -5.9 10.5 c -5 3.1 -12.9 5 -21.4 4.7 c -11.1 -0.4 -21.5 -3.9 -35.1 -8.5 c -2.3 -0.8 -4.7 -1.6 -7.2 -2.4 c -10.5 -3.5 -21.8 2.2 -25.3 12.6 s 2.2 21.8 12.6 25.3 c 1.9 0.6 4 1.3 6.1 2.1 l 0 0 l 0 0 c 8.3 2.9 17.9 6.2 28.2 8.4 V 424 c 0 11 9 20 20 20 s 20 -9 20 -20 V 410.2 c 8 -1.7 16 -4.5 23.2 -9 c 14.3 -8.9 25.1 -24.1 24.8 -45 c -0.3 -20.3 -11.7 -33.4 -24.6 -41.6 c -11.5 -7.2 -25.9 -11.6 -37.1 -15 l 0 0 l -0.7 -0.2 c -12.8 -3.9 -21.9 -6.7 -28.3 -10.5 c -5.2 -3.1 -5.3 -4.9 -5.3 -6.7 c 0 -3.7 1.4 -6.5 6.2 -9.3 c 5.4 -3.2 13.6 -5.1 21.5 -5 c 9.6 0.1 20.2 2.2 31.2 5.2 c 10.7 2.8 21.6 -3.5 24.5 -14.2 s -3.5 -21.6 -14.2 -24.5 c -6.5 -1.7 -13.7 -3.4 -21.1 -4.7 V 216 z" stroke-linecap="round"/>
</g>
</svg>