<svg xmlns="http://www.w3.org/2000/svg" xmlns:xlink="http://www.w3.org/1999/xlink" version="1.1" width="1000" height="1000" viewBox="0 0 1000 1000" xml:space="preserve">
<desc>Created with Fabric.js 3.5.0</desc>
<defs>
</defs>
<rect x="0" y="0" width="100%" height="100%" fill="rgba(255,255,255,0)"/>
<g transform="matrix(1.6176 0 0 1.6176 500.0074 500.0074)" id="95170">
<path style="stroke: none; stroke-width: 1; stroke-dasharray: none; stroke-linecap: butt; stroke-dashoffset: 0; stroke-linejoin: miter; stroke-miterlimit: 4; is-custom-font: none; font-file-url: none; fill: rgb(238,64,94); fill-rule: nonzero; opacity: 1;" vector-effect="non-scaling-stroke" transform=" translate(-256, -256)" d="M 464 256 A 208 208 0 1 1 48 256 a 208 208 0 1 1 416 0 z M 0 256 a 256 256 0 1 0 512 0 A 256 256 0 1 0 0 256 z M 232 120 V 256 c 0 8 4 15.5 10.7 20 l 96 64 c 11 7.4 25.9 4.4 33.3 -6.7 s 4.4 -25.9 -6.7 -33.3 L 280 243.2 V 120 c 0 -13.3 -10.7 -24 -24 -24 s -24 10.7 -24 24 z" stroke-linecap="round"/>
</g>
</svg>