<svg xmlns="http://www.w3.org/2000/svg" xmlns:xlink="http://www.w3.org/1999/xlink" version="1.1" width="1000" height="1000" viewBox="0 0 1000 1000" xml:space="preserve">
<desc>Created with Fabric.js 3.5.0</desc>
<defs>
</defs>
<rect x="0" y="0" width="100%" height="100%" fill="rgba(255,255,255,0)"/>
<g transform="matrix(1.5936 0 0 1.5936 500.0076 500.0067)" id="483804">
<path style="stroke: none; stroke-width: 1; stroke-dasharray: none; stroke-linecap: butt; stroke-dashoffset: 0; stroke-linejoin: miter; stroke-miterlimit: 4; is-custom-font: none; font-file-url: none; fill: rgb(238,64,94); fill-rule: nonzero; opacity: 1;" vector-effect="non-scaling-stroke" transform=" translate(-256, -256)" d="M 135.2 117.4 L 109.1 192 H 402.9 l -26.1 -74.6 C 372.3 104.6 360.2 96 346.6 96 H 165.4 c -13.6 0 -25.7 8.6 -30.2 21.4 z M 39.6 196.8 L 74.8 96.3 C 88.3 57.8 124.6 32 165.4 32 H 346.6 c 40.8 0 77.1 25.8 90.6 64.3 l 35.2 100.5 c 23.2 9.6 39.6 32.5 39.6 59.2 V 400 v 48 c 0 17.7 -14.3 32 -32 32 H 448 c -17.7 0 -32 -14.3 -32 -32 V 400 H 96 v 48 c 0 17.7 -14.3 32 -32 32 H 32 c -17.7 0 -32 -14.3 -32 -32 V 400 V 256 c 0 -26.7 16.4 -49.6 39.6 -59.2 z M 128 288 a 32 32 0 1 0 -64 0 a 32 32 0 1 0 64 0 z m 288 32 a 32 32 0 1 0 0 -64 a 32 32 0 1 0 0 64 z" stroke-linecap="round"/>
</g>
</svg>